<?xml version="1.0" encoding="UTF-8" standalone="no"?>
<!DOCTYPE svg PUBLIC "-//W3C//DTD SVG 1.1//EN"
 "http://www.w3.org/Graphics/SVG/1.1/DTD/svg11.dtd">
<!-- Generated by graphviz version 12.1.2 (20240928.0832)
 -->
<!-- Title: public.transactions Pages: 1 -->
<svg width="1141pt" height="1183pt"
 viewBox="0.00 0.00 1140.97 1183.00" xmlns="http://www.w3.org/2000/svg" xmlns:xlink="http://www.w3.org/1999/xlink">
<g id="graph0" class="graph" transform="scale(1 1) rotate(0) translate(4 1179)">
<title>public.transactions</title>
<polygon fill="white" stroke="none" points="-4,4 -4,-1179 1136.97,-1179 1136.97,4 -4,4"/>
<!-- public.transactions -->
<g id="node1" class="node">
<title>public.transactions</title>
<polygon fill="#efefef" stroke="none" points="391.11,-851 391.11,-886.6 665.06,-886.6 665.06,-851 391.11,-851"/>
<polygon fill="none" stroke="black" points="391.11,-851 391.11,-886.6 665.06,-886.6 665.06,-851 391.11,-851"/>
<text text-anchor="start" x="398.11" y="-864.4" font-family="Arial Bold" font-size="18.00">public.transactions</text>
<text text-anchor="start" x="533.57" y="-864.4" font-family="Arial" font-size="14.00">    </text>
<text text-anchor="start" x="564.69" y="-864.4" font-family="Arial" font-size="14.00" fill="#666666">[BASE TABLE]</text>
<polygon fill="none" stroke="black" points="391.11,-820.2 391.11,-851 665.06,-851 665.06,-820.2 391.11,-820.2"/>
<text text-anchor="start" x="398.11" y="-832.4" font-family="Arial" font-size="14.00">id </text>
<text text-anchor="start" x="412.89" y="-832.4" font-family="Arial" font-size="14.00" fill="#666666">[uuid]</text>
<polygon fill="none" stroke="black" points="391.11,-789.4 391.11,-820.2 665.06,-820.2 665.06,-789.4 391.11,-789.4"/>
<text text-anchor="start" x="398.11" y="-801.6" font-family="Arial" font-size="14.00">user_id </text>
<text text-anchor="start" x="447.91" y="-801.6" font-family="Arial" font-size="14.00" fill="#666666">[uuid]</text>
<polygon fill="none" stroke="black" points="391.11,-758.6 391.11,-789.4 665.06,-789.4 665.06,-758.6 391.11,-758.6"/>
<text text-anchor="start" x="398.11" y="-770.8" font-family="Arial" font-size="14.00">category_id </text>
<text text-anchor="start" x="474.38" y="-770.8" font-family="Arial" font-size="14.00" fill="#666666">[uuid]</text>
<polygon fill="none" stroke="black" points="391.11,-727.8 391.11,-758.6 665.06,-758.6 665.06,-727.8 391.11,-727.8"/>
<text text-anchor="start" x="398.11" y="-740" font-family="Arial" font-size="14.00">item_id </text>
<text text-anchor="start" x="447.13" y="-740" font-family="Arial" font-size="14.00" fill="#666666">[uuid]</text>
<polygon fill="none" stroke="black" points="391.11,-697 391.11,-727.8 665.06,-727.8 665.06,-697 391.11,-697"/>
<text text-anchor="start" x="398.11" y="-709.2" font-family="Arial" font-size="14.00">amount_minor </text>
<text text-anchor="start" x="491.49" y="-709.2" font-family="Arial" font-size="14.00" fill="#666666">[bigint]</text>
<polygon fill="none" stroke="black" points="391.11,-666.2 391.11,-697 665.06,-697 665.06,-666.2 391.11,-666.2"/>
<text text-anchor="start" x="398.11" y="-678.4" font-family="Arial" font-size="14.00">currency </text>
<text text-anchor="start" x="455.68" y="-678.4" font-family="Arial" font-size="14.00" fill="#666666">[character(3)]</text>
<polygon fill="none" stroke="black" points="391.11,-635.4 391.11,-666.2 665.06,-666.2 665.06,-635.4 391.11,-635.4"/>
<text text-anchor="start" x="398.11" y="-647.6" font-family="Arial" font-size="14.00">home_amount_minor </text>
<text text-anchor="start" x="534.29" y="-647.6" font-family="Arial" font-size="14.00" fill="#666666">[bigint]</text>
<polygon fill="none" stroke="black" points="391.11,-604.6 391.11,-635.4 665.06,-635.4 665.06,-604.6 391.11,-604.6"/>
<text text-anchor="start" x="398.11" y="-616.8" font-family="Arial" font-size="14.00">home_currency </text>
<text text-anchor="start" x="498.49" y="-616.8" font-family="Arial" font-size="14.00" fill="#666666">[character(3)]</text>
<polygon fill="none" stroke="black" points="391.11,-573.8 391.11,-604.6 665.06,-604.6 665.06,-573.8 391.11,-573.8"/>
<text text-anchor="start" x="398.11" y="-586" font-family="Arial" font-size="14.00">fx_rate_used </text>
<text text-anchor="start" x="482.94" y="-586" font-family="Arial" font-size="14.00" fill="#666666">[numeric(18,8)]</text>
<polygon fill="none" stroke="black" points="391.11,-543 391.11,-573.8 665.06,-573.8 665.06,-543 391.11,-543"/>
<text text-anchor="start" x="398.11" y="-555.2" font-family="Arial" font-size="14.00">occurred_at </text>
<text text-anchor="start" x="475.93" y="-555.2" font-family="Arial" font-size="14.00" fill="#666666">[timestamp with time zone]</text>
<polygon fill="none" stroke="black" points="391.11,-512.2 391.11,-543 665.06,-543 665.06,-512.2 391.11,-512.2"/>
<text text-anchor="start" x="398.11" y="-524.4" font-family="Arial" font-size="14.00">note </text>
<text text-anchor="start" x="429.25" y="-524.4" font-family="Arial" font-size="14.00" fill="#666666">[text]</text>
<polygon fill="none" stroke="black" points="391.11,-481.4 391.11,-512.2 665.06,-512.2 665.06,-481.4 391.11,-481.4"/>
<text text-anchor="start" x="398.11" y="-493.6" font-family="Arial" font-size="14.00">reversed_of </text>
<text text-anchor="start" x="475.93" y="-493.6" font-family="Arial" font-size="14.00" fill="#666666">[uuid]</text>
<polygon fill="none" stroke="black" points="391.11,-450.6 391.11,-481.4 665.06,-481.4 665.06,-450.6 391.11,-450.6"/>
<text text-anchor="start" x="398.11" y="-462.8" font-family="Arial" font-size="14.00">created_at </text>
<text text-anchor="start" x="468.16" y="-462.8" font-family="Arial" font-size="14.00" fill="#666666">[timestamp with time zone]</text>
<polygon fill="none" stroke="black" stroke-width="3" points="389.61,-449.1 389.61,-888.1 666.56,-888.1 666.56,-449.1 389.61,-449.1"/>
</g>
<!-- public.transactions&#45;&gt;public.transactions -->
<g id="edge1" class="edge">
<title>public.transactions:reversed_of&#45;&gt;public.transactions:id</title>
<path fill="none" stroke="black" d="M529.27,-522.1C537.07,-711.27 536.67,-1175 528.09,-1175 519.36,-1175 519.09,-1014.57 527.29,-850.93"/>
<polygon fill="black" stroke="black" points="529.27,-522.27 533.34,-512.08 529.04,-516.94 528.86,-512.61 528.86,-512.61 528.86,-512.61 529.04,-516.94 524.35,-512.47 529.27,-522.27"/>
<text text-anchor="start" x="248.98" y="-521.94" font-family="Arial" font-size="10.00">FOREIGN KEY (reversed_of) REFERENCES transactions(id)</text>
</g>
<!-- public.users -->
<g id="node2" class="node">
<title>public.users</title>
<polygon fill="#efefef" stroke="none" points="43.2,-258.8 43.2,-294.4 292.97,-294.4 292.97,-258.8 43.2,-258.8"/>
<polygon fill="none" stroke="black" points="43.2,-258.8 43.2,-294.4 292.97,-294.4 292.97,-258.8 43.2,-258.8"/>
<text text-anchor="start" x="62.6" y="-272.2" font-family="Arial Bold" font-size="18.00">public.users</text>
<text text-anchor="start" x="149.08" y="-272.2" font-family="Arial" font-size="14.00">    </text>
<text text-anchor="start" x="180.2" y="-272.2" font-family="Arial" font-size="14.00" fill="#666666">[BASE TABLE]</text>
<polygon fill="none" stroke="black" points="43.2,-228 43.2,-258.8 292.97,-258.8 292.97,-228 43.2,-228"/>
<text text-anchor="start" x="50.2" y="-240.2" font-family="Arial" font-size="14.00">id </text>
<text text-anchor="start" x="64.99" y="-240.2" font-family="Arial" font-size="14.00" fill="#666666">[uuid]</text>
<polygon fill="none" stroke="black" points="43.2,-197.2 43.2,-228 292.97,-228 292.97,-197.2 43.2,-197.2"/>
<text text-anchor="start" x="50.2" y="-209.4" font-family="Arial" font-size="14.00">email </text>
<text text-anchor="start" x="87.54" y="-209.4" font-family="Arial" font-size="14.00" fill="#666666">[citext]</text>
<polygon fill="none" stroke="black" points="43.2,-166.4 43.2,-197.2 292.97,-197.2 292.97,-166.4 43.2,-166.4"/>
<text text-anchor="start" x="50.2" y="-178.6" font-family="Arial" font-size="14.00">timezone </text>
<text text-anchor="start" x="110.9" y="-178.6" font-family="Arial" font-size="14.00" fill="#666666">[text]</text>
<polygon fill="none" stroke="black" points="43.2,-135.6 43.2,-166.4 292.97,-166.4 292.97,-135.6 43.2,-135.6"/>
<text text-anchor="start" x="50.2" y="-147.8" font-family="Arial" font-size="14.00">period_anchor_day </text>
<text text-anchor="start" x="173.96" y="-147.8" font-family="Arial" font-size="14.00" fill="#666666">[smallint]</text>
<polygon fill="none" stroke="black" points="43.2,-104.8 43.2,-135.6 292.97,-135.6 292.97,-104.8 43.2,-104.8"/>
<text text-anchor="start" x="50.2" y="-117" font-family="Arial" font-size="14.00">home_currency </text>
<text text-anchor="start" x="150.58" y="-117" font-family="Arial" font-size="14.00" fill="#666666">[character(3)]</text>
<polygon fill="none" stroke="black" points="43.2,-74 43.2,-104.8 292.97,-104.8 292.97,-74 43.2,-74"/>
<text text-anchor="start" x="50.2" y="-86.2" font-family="Arial" font-size="14.00">created_at </text>
<text text-anchor="start" x="120.25" y="-86.2" font-family="Arial" font-size="14.00" fill="#666666">[timestamp with time zone]</text>
</g>
<!-- public.transactions&#45;&gt;public.users -->
<g id="edge2" class="edge">
<title>public.transactions:user_id&#45;&gt;public.users:id</title>
<path fill="none" stroke="black" d="M380.85,-800.28C329.77,-747.15 353.92,-243.4 293.97,-243.4"/>
<polygon fill="black" stroke="black" points="380.82,-800.27 387.83,-808.7 385.61,-802.61 389.51,-804.51 389.51,-804.51 389.51,-804.51 385.61,-802.61 391.78,-800.61 380.82,-800.27"/>
<text text-anchor="start" x="49.15" y="-814.8" font-family="Arial" font-size="10.00">FOREIGN KEY (user_id) REFERENCES users(id) ON DELETE CASCADE</text>
</g>
<!-- public.categories -->
<g id="node3" class="node">
<title>public.categories</title>
<polygon fill="#efefef" stroke="none" points="397.62,-258.8 397.62,-294.4 658.55,-294.4 658.55,-258.8 397.62,-258.8"/>
<polygon fill="none" stroke="black" points="397.62,-258.8 397.62,-294.4 658.55,-294.4 658.55,-258.8 397.62,-258.8"/>
<text text-anchor="start" x="404.62" y="-272.2" font-family="Arial Bold" font-size="18.00">public.categories</text>
<text text-anchor="start" x="527.07" y="-272.2" font-family="Arial" font-size="14.00">    </text>
<text text-anchor="start" x="558.18" y="-272.2" font-family="Arial" font-size="14.00" fill="#666666">[BASE TABLE]</text>
<polygon fill="none" stroke="black" points="397.62,-228 397.62,-258.8 658.55,-258.8 658.55,-228 397.62,-228"/>
<text text-anchor="start" x="404.62" y="-240.2" font-family="Arial" font-size="14.00">id </text>
<text text-anchor="start" x="419.4" y="-240.2" font-family="Arial" font-size="14.00" fill="#666666">[uuid]</text>
<polygon fill="none" stroke="black" points="397.62,-197.2 397.62,-228 658.55,-228 658.55,-197.2 397.62,-197.2"/>
<text text-anchor="start" x="404.62" y="-209.4" font-family="Arial" font-size="14.00">user_id </text>
<text text-anchor="start" x="454.42" y="-209.4" font-family="Arial" font-size="14.00" fill="#666666">[uuid]</text>
<polygon fill="none" stroke="black" points="397.62,-166.4 397.62,-197.2 658.55,-197.2 658.55,-166.4 397.62,-166.4"/>
<text text-anchor="start" x="404.62" y="-178.6" font-family="Arial" font-size="14.00">name </text>
<text text-anchor="start" x="443.53" y="-178.6" font-family="Arial" font-size="14.00" fill="#666666">[text]</text>
<polygon fill="none" stroke="black" points="397.62,-135.6 397.62,-166.4 658.55,-166.4 658.55,-135.6 397.62,-135.6"/>
<text text-anchor="start" x="404.62" y="-147.8" font-family="Arial" font-size="14.00">archived_at </text>
<text text-anchor="start" x="480.89" y="-147.8" font-family="Arial" font-size="14.00" fill="#666666">[timestamp with time zone]</text>
<polygon fill="none" stroke="black" points="397.62,-104.8 397.62,-135.6 658.55,-135.6 658.55,-104.8 397.62,-104.8"/>
<text text-anchor="start" x="404.62" y="-117" font-family="Arial" font-size="14.00">created_at </text>
<text text-anchor="start" x="474.66" y="-117" font-family="Arial" font-size="14.00" fill="#666666">[timestamp with time zone]</text>
<polygon fill="none" stroke="black" points="397.62,-74 397.62,-104.8 658.55,-104.8 658.55,-74 397.62,-74"/>
<text text-anchor="start" x="404.62" y="-86.2" font-family="Arial" font-size="14.00">updated_at </text>
<text text-anchor="start" x="478.57" y="-86.2" font-family="Arial" font-size="14.00" fill="#666666">[timestamp with time zone]</text>
</g>
<!-- public.transactions&#45;&gt;public.categories -->
<g id="edge3" class="edge">
<title>public.transactions:user_id&#45;&gt;public.categories:user_id</title>
<path fill="none" stroke="black" d="M675.19,-800.7C731.09,-748.38 722.15,-212.6 659.55,-212.6"/>
<polygon fill="black" stroke="black" points="675.49,-800.57 664.52,-800.56 670.62,-802.75 666.67,-804.53 666.67,-804.53 666.67,-804.53 670.62,-802.75 668.21,-808.77 675.49,-800.57"/>
<text text-anchor="start" x="673.06" y="-814.8" font-family="Arial" font-size="10.00">FOREIGN KEY (user_id, category_id) REFERENCES categories(user_id, id) ON DELETE RESTRICT</text>
</g>
<!-- public.items -->
<g id="node4" class="node">
<title>public.items</title>
<polygon fill="#efefef" stroke="none" points="763.09,-289.6 763.09,-325.2 1019.08,-325.2 1019.08,-289.6 763.09,-289.6"/>
<polygon fill="none" stroke="black" points="763.09,-289.6 763.09,-325.2 1019.08,-325.2 1019.08,-289.6 763.09,-289.6"/>
<text text-anchor="start" x="784.6" y="-303" font-family="Arial Bold" font-size="18.00">public.items</text>
<text text-anchor="start" x="873.09" y="-303" font-family="Arial" font-size="14.00">    </text>
<text text-anchor="start" x="904.2" y="-303" font-family="Arial" font-size="14.00" fill="#666666">[BASE TABLE]</text>
<polygon fill="none" stroke="black" points="763.09,-258.8 763.09,-289.6 1019.08,-289.6 1019.08,-258.8 763.09,-258.8"/>
<text text-anchor="start" x="770.09" y="-271" font-family="Arial" font-size="14.00">id </text>
<text text-anchor="start" x="784.88" y="-271" font-family="Arial" font-size="14.00" fill="#666666">[uuid]</text>
<polygon fill="none" stroke="black" points="763.09,-228 763.09,-258.8 1019.08,-258.8 1019.08,-228 763.09,-228"/>
<text text-anchor="start" x="770.09" y="-240.2" font-family="Arial" font-size="14.00">user_id </text>
<text text-anchor="start" x="819.9" y="-240.2" font-family="Arial" font-size="14.00" fill="#666666">[uuid]</text>
<polygon fill="none" stroke="black" points="763.09,-197.2 763.09,-228 1019.08,-228 1019.08,-197.2 763.09,-197.2"/>
<text text-anchor="start" x="770.09" y="-209.4" font-family="Arial" font-size="14.00">category_id </text>
<text text-anchor="start" x="846.36" y="-209.4" font-family="Arial" font-size="14.00" fill="#666666">[uuid]</text>
<polygon fill="none" stroke="black" points="763.09,-166.4 763.09,-197.2 1019.08,-197.2 1019.08,-166.4 763.09,-166.4"/>
<text text-anchor="start" x="770.09" y="-178.6" font-family="Arial" font-size="14.00">name </text>
<text text-anchor="start" x="809" y="-178.6" font-family="Arial" font-size="14.00" fill="#666666">[text]</text>
<polygon fill="none" stroke="black" points="763.09,-135.6 763.09,-166.4 1019.08,-166.4 1019.08,-135.6 763.09,-135.6"/>
<text text-anchor="start" x="770.09" y="-147.8" font-family="Arial" font-size="14.00">importance </text>
<text text-anchor="start" x="843.23" y="-147.8" font-family="Arial" font-size="14.00" fill="#666666">[item_importance]</text>
<polygon fill="none" stroke="black" points="763.09,-104.8 763.09,-135.6 1019.08,-135.6 1019.08,-104.8 763.09,-104.8"/>
<text text-anchor="start" x="770.09" y="-117" font-family="Arial" font-size="14.00">archived_at </text>
<text text-anchor="start" x="846.36" y="-117" font-family="Arial" font-size="14.00" fill="#666666">[timestamp with time zone]</text>
<polygon fill="none" stroke="black" points="763.09,-74 763.09,-104.8 1019.08,-104.8 1019.08,-74 763.09,-74"/>
<text text-anchor="start" x="770.09" y="-86.2" font-family="Arial" font-size="14.00">created_at </text>
<text text-anchor="start" x="840.14" y="-86.2" font-family="Arial" font-size="14.00" fill="#666666">[timestamp with time zone]</text>
<polygon fill="none" stroke="black" points="763.09,-43.2 763.09,-74 1019.08,-74 1019.08,-43.2 763.09,-43.2"/>
<text text-anchor="start" x="770.09" y="-55.4" font-family="Arial" font-size="14.00">updated_at </text>
<text text-anchor="start" x="844.05" y="-55.4" font-family="Arial" font-size="14.00" fill="#666666">[timestamp with time zone]</text>
</g>
<!-- public.transactions&#45;&gt;public.items -->
<g id="edge4" class="edge">
<title>public.transactions:user_id&#45;&gt;public.items:user_id</title>
<path fill="none" stroke="black" d="M675.32,-800.28C726.39,-747.15 702.14,-243.4 762.09,-243.4"/>
<polygon fill="black" stroke="black" points="675.35,-800.27 664.39,-800.61 670.56,-802.61 666.66,-804.51 666.66,-804.51 666.66,-804.51 670.56,-802.61 668.34,-808.7 675.35,-800.27"/>
<text text-anchor="start" x="673.06" y="-788.8" font-family="Arial" font-size="10.00">FOREIGN KEY (user_id, item_id) REFERENCES items(user_id, id) ON DELETE RESTRICT</text>
</g>
</g>
</svg>
