<?xml version="1.0" encoding="UTF-8" standalone="no"?>
<!DOCTYPE svg PUBLIC "-//W3C//DTD SVG 1.1//EN"
 "http://www.w3.org/Graphics/SVG/1.1/DTD/svg11.dtd">
<!-- Generated by graphviz version 12.1.2 (20240928.0832)
 -->
<!-- Title: public.categories Pages: 1 -->
<svg width="1044pt" height="1222pt"
 viewBox="0.00 0.00 1043.85 1222.00" xmlns="http://www.w3.org/2000/svg" xmlns:xlink="http://www.w3.org/1999/xlink">
<g id="graph0" class="graph" transform="scale(1 1) rotate(0) translate(4 1218)">
<title>public.categories</title>
<polygon fill="white" stroke="none" points="-4,4 -4,-1218 1039.85,-1218 1039.85,4 -4,4"/>
<!-- public.categories -->
<g id="node1" class="node">
<title>public.categories</title>
<polygon fill="#efefef" stroke="none" points="207.44,-573.8 207.44,-609.4 468.38,-609.4 468.38,-573.8 207.44,-573.8"/>
<polygon fill="none" stroke="black" points="207.44,-573.8 207.44,-609.4 468.38,-609.4 468.38,-573.8 207.44,-573.8"/>
<text text-anchor="start" x="214.44" y="-587.2" font-family="Arial Bold" font-size="18.00">public.categories</text>
<text text-anchor="start" x="336.89" y="-587.2" font-family="Arial" font-size="14.00">    </text>
<text text-anchor="start" x="368.01" y="-587.2" font-family="Arial" font-size="14.00" fill="#666666">[BASE TABLE]</text>
<polygon fill="none" stroke="black" points="207.44,-543 207.44,-573.8 468.38,-573.8 468.38,-543 207.44,-543"/>
<text text-anchor="start" x="214.44" y="-555.2" font-family="Arial" font-size="14.00">id </text>
<text text-anchor="start" x="229.23" y="-555.2" font-family="Arial" font-size="14.00" fill="#666666">[uuid]</text>
<polygon fill="none" stroke="black" points="207.44,-512.2 207.44,-543 468.38,-543 468.38,-512.2 207.44,-512.2"/>
<text text-anchor="start" x="214.44" y="-524.4" font-family="Arial" font-size="14.00">user_id </text>
<text text-anchor="start" x="264.25" y="-524.4" font-family="Arial" font-size="14.00" fill="#666666">[uuid]</text>
<polygon fill="none" stroke="black" points="207.44,-481.4 207.44,-512.2 468.38,-512.2 468.38,-481.4 207.44,-481.4"/>
<text text-anchor="start" x="214.44" y="-493.6" font-family="Arial" font-size="14.00">name </text>
<text text-anchor="start" x="253.35" y="-493.6" font-family="Arial" font-size="14.00" fill="#666666">[text]</text>
<polygon fill="none" stroke="black" points="207.44,-450.6 207.44,-481.4 468.38,-481.4 468.38,-450.6 207.44,-450.6"/>
<text text-anchor="start" x="214.44" y="-462.8" font-family="Arial" font-size="14.00">archived_at </text>
<text text-anchor="start" x="290.71" y="-462.8" font-family="Arial" font-size="14.00" fill="#666666">[timestamp with time zone]</text>
<polygon fill="none" stroke="black" points="207.44,-419.8 207.44,-450.6 468.38,-450.6 468.38,-419.8 207.44,-419.8"/>
<text text-anchor="start" x="214.44" y="-432" font-family="Arial" font-size="14.00">created_at </text>
<text text-anchor="start" x="284.49" y="-432" font-family="Arial" font-size="14.00" fill="#666666">[timestamp with time zone]</text>
<polygon fill="none" stroke="black" points="207.44,-389 207.44,-419.8 468.38,-419.8 468.38,-389 207.44,-389"/>
<text text-anchor="start" x="214.44" y="-401.2" font-family="Arial" font-size="14.00">updated_at </text>
<text text-anchor="start" x="288.4" y="-401.2" font-family="Arial" font-size="14.00" fill="#666666">[timestamp with time zone]</text>
<polygon fill="none" stroke="black" stroke-width="3" points="205.94,-387.5 205.94,-610.9 469.88,-610.9 469.88,-387.5 205.94,-387.5"/>
</g>
<!-- public.users -->
<g id="node4" class="node">
<title>public.users</title>
<polygon fill="#efefef" stroke="none" points="213.03,-228 213.03,-263.6 462.8,-263.6 462.8,-228 213.03,-228"/>
<polygon fill="none" stroke="black" points="213.03,-228 213.03,-263.6 462.8,-263.6 462.8,-228 213.03,-228"/>
<text text-anchor="start" x="232.43" y="-241.4" font-family="Arial Bold" font-size="18.00">public.users</text>
<text text-anchor="start" x="318.91" y="-241.4" font-family="Arial" font-size="14.00">    </text>
<text text-anchor="start" x="350.03" y="-241.4" font-family="Arial" font-size="14.00" fill="#666666">[BASE TABLE]</text>
<polygon fill="none" stroke="black" points="213.03,-197.2 213.03,-228 462.8,-228 462.8,-197.2 213.03,-197.2"/>
<text text-anchor="start" x="220.03" y="-209.4" font-family="Arial" font-size="14.00">id </text>
<text text-anchor="start" x="234.81" y="-209.4" font-family="Arial" font-size="14.00" fill="#666666">[uuid]</text>
<polygon fill="none" stroke="black" points="213.03,-166.4 213.03,-197.2 462.8,-197.2 462.8,-166.4 213.03,-166.4"/>
<text text-anchor="start" x="220.03" y="-178.6" font-family="Arial" font-size="14.00">email </text>
<text text-anchor="start" x="257.37" y="-178.6" font-family="Arial" font-size="14.00" fill="#666666">[citext]</text>
<polygon fill="none" stroke="black" points="213.03,-135.6 213.03,-166.4 462.8,-166.4 462.8,-135.6 213.03,-135.6"/>
<text text-anchor="start" x="220.03" y="-147.8" font-family="Arial" font-size="14.00">timezone </text>
<text text-anchor="start" x="280.72" y="-147.8" font-family="Arial" font-size="14.00" fill="#666666">[text]</text>
<polygon fill="none" stroke="black" points="213.03,-104.8 213.03,-135.6 462.8,-135.6 462.8,-104.8 213.03,-104.8"/>
<text text-anchor="start" x="220.03" y="-117" font-family="Arial" font-size="14.00">period_anchor_day </text>
<text text-anchor="start" x="343.79" y="-117" font-family="Arial" font-size="14.00" fill="#666666">[smallint]</text>
<polygon fill="none" stroke="black" points="213.03,-74 213.03,-104.8 462.8,-104.8 462.8,-74 213.03,-74"/>
<text text-anchor="start" x="220.03" y="-86.2" font-family="Arial" font-size="14.00">home_currency </text>
<text text-anchor="start" x="320.41" y="-86.2" font-family="Arial" font-size="14.00" fill="#666666">[character(3)]</text>
<polygon fill="none" stroke="black" points="213.03,-43.2 213.03,-74 462.8,-74 462.8,-43.2 213.03,-43.2"/>
<text text-anchor="start" x="220.03" y="-55.4" font-family="Arial" font-size="14.00">created_at </text>
<text text-anchor="start" x="290.08" y="-55.4" font-family="Arial" font-size="14.00" fill="#666666">[timestamp with time zone]</text>
</g>
<!-- public.categories&#45;&gt;public.users -->
<g id="edge4" class="edge">
<title>public.categories:user_id&#45;&gt;public.users:id</title>
<path fill="none" stroke="black" d="M479.77,-527C609.04,-511.81 600.27,-212.6 463.8,-212.6"/>
<polygon fill="black" stroke="black" points="479.7,-527 469.46,-523.09 474.38,-527.31 470.05,-527.56 470.05,-527.56 470.05,-527.56 474.38,-527.31 469.98,-532.07 479.7,-527"/>
<text text-anchor="start" x="476.38" y="-537.6" font-family="Arial" font-size="10.00">FOREIGN KEY (user_id) REFERENCES users(id) ON DELETE CASCADE</text>
</g>
<!-- public.items -->
<g id="node2" class="node">
<title>public.items</title>
<polygon fill="#efefef" stroke="none" points="209.92,-1058.2 209.92,-1093.8 465.91,-1093.8 465.91,-1058.2 209.92,-1058.2"/>
<polygon fill="none" stroke="black" points="209.92,-1058.2 209.92,-1093.8 465.91,-1093.8 465.91,-1058.2 209.92,-1058.2"/>
<text text-anchor="start" x="231.43" y="-1071.6" font-family="Arial Bold" font-size="18.00">public.items</text>
<text text-anchor="start" x="319.91" y="-1071.6" font-family="Arial" font-size="14.00">    </text>
<text text-anchor="start" x="351.03" y="-1071.6" font-family="Arial" font-size="14.00" fill="#666666">[BASE TABLE]</text>
<polygon fill="none" stroke="black" points="209.92,-1027.4 209.92,-1058.2 465.91,-1058.2 465.91,-1027.4 209.92,-1027.4"/>
<text text-anchor="start" x="216.92" y="-1039.6" font-family="Arial" font-size="14.00">id </text>
<text text-anchor="start" x="231.7" y="-1039.6" font-family="Arial" font-size="14.00" fill="#666666">[uuid]</text>
<polygon fill="none" stroke="black" points="209.92,-996.6 209.92,-1027.4 465.91,-1027.4 465.91,-996.6 209.92,-996.6"/>
<text text-anchor="start" x="216.92" y="-1008.8" font-family="Arial" font-size="14.00">user_id </text>
<text text-anchor="start" x="266.72" y="-1008.8" font-family="Arial" font-size="14.00" fill="#666666">[uuid]</text>
<polygon fill="none" stroke="black" points="209.92,-965.8 209.92,-996.6 465.91,-996.6 465.91,-965.8 209.92,-965.8"/>
<text text-anchor="start" x="216.92" y="-978" font-family="Arial" font-size="14.00">category_id </text>
<text text-anchor="start" x="293.19" y="-978" font-family="Arial" font-size="14.00" fill="#666666">[uuid]</text>
<polygon fill="none" stroke="black" points="209.92,-935 209.92,-965.8 465.91,-965.8 465.91,-935 209.92,-935"/>
<text text-anchor="start" x="216.92" y="-947.2" font-family="Arial" font-size="14.00">name </text>
<text text-anchor="start" x="255.83" y="-947.2" font-family="Arial" font-size="14.00" fill="#666666">[text]</text>
<polygon fill="none" stroke="black" points="209.92,-904.2 209.92,-935 465.91,-935 465.91,-904.2 209.92,-904.2"/>
<text text-anchor="start" x="216.92" y="-916.4" font-family="Arial" font-size="14.00">importance </text>
<text text-anchor="start" x="290.06" y="-916.4" font-family="Arial" font-size="14.00" fill="#666666">[item_importance]</text>
<polygon fill="none" stroke="black" points="209.92,-873.4 209.92,-904.2 465.91,-904.2 465.91,-873.4 209.92,-873.4"/>
<text text-anchor="start" x="216.92" y="-885.6" font-family="Arial" font-size="14.00">archived_at </text>
<text text-anchor="start" x="293.19" y="-885.6" font-family="Arial" font-size="14.00" fill="#666666">[timestamp with time zone]</text>
<polygon fill="none" stroke="black" points="209.92,-842.6 209.92,-873.4 465.91,-873.4 465.91,-842.6 209.92,-842.6"/>
<text text-anchor="start" x="216.92" y="-854.8" font-family="Arial" font-size="14.00">created_at </text>
<text text-anchor="start" x="286.97" y="-854.8" font-family="Arial" font-size="14.00" fill="#666666">[timestamp with time zone]</text>
<polygon fill="none" stroke="black" points="209.92,-811.8 209.92,-842.6 465.91,-842.6 465.91,-811.8 209.92,-811.8"/>
<text text-anchor="start" x="216.92" y="-824" font-family="Arial" font-size="14.00">updated_at </text>
<text text-anchor="start" x="290.88" y="-824" font-family="Arial" font-size="14.00" fill="#666666">[timestamp with time zone]</text>
</g>
<!-- public.items&#45;&gt;public.categories -->
<g id="edge1" class="edge">
<title>public.items:category_id&#45;&gt;public.categories:id</title>
<path fill="none" stroke="black" d="M475.68,-975.85C514,-926.91 513.24,-558.4 469.38,-558.4"/>
<polygon fill="black" stroke="black" points="475.73,-975.82 464.85,-977.18 471.18,-978.6 467.48,-980.85 467.48,-980.85 467.48,-980.85 471.18,-978.6 469.54,-984.87 475.73,-975.82"/>
<text text-anchor="start" x="83.71" y="-991.2" font-family="Arial" font-size="10.00">FOREIGN KEY (category_id) REFERENCES categories(id) ON DELETE RESTRICT</text>
</g>
<!-- public.items&#45;&gt;public.categories -->
<g id="edge2" class="edge">
<title>public.items:user_id&#45;&gt;public.categories:user_id</title>
<path fill="none" stroke="black" d="M475.84,-1007.21C520.83,-956.9 520.05,-527.6 469.38,-527.6"/>
<polygon fill="black" stroke="black" points="476.02,-1007.11 465.08,-1007.88 471.32,-1009.64 467.5,-1011.68 467.5,-1011.68 467.5,-1011.68 471.32,-1009.64 469.33,-1015.81 476.02,-1007.11"/>
<text text-anchor="start" x="7" y="-1022" font-family="Arial" font-size="10.00">FOREIGN KEY (user_id, category_id) REFERENCES categories(user_id, id) ON DELETE RESTRICT</text>
</g>
<!-- public.transactions -->
<g id="node3" class="node">
<title>public.transactions</title>
<polygon fill="#efefef" stroke="none" points="569.94,-1135.2 569.94,-1170.8 843.89,-1170.8 843.89,-1135.2 569.94,-1135.2"/>
<polygon fill="none" stroke="black" points="569.94,-1135.2 569.94,-1170.8 843.89,-1170.8 843.89,-1135.2 569.94,-1135.2"/>
<text text-anchor="start" x="576.94" y="-1148.6" font-family="Arial Bold" font-size="18.00">public.transactions</text>
<text text-anchor="start" x="712.4" y="-1148.6" font-family="Arial" font-size="14.00">    </text>
<text text-anchor="start" x="743.52" y="-1148.6" font-family="Arial" font-size="14.00" fill="#666666">[BASE TABLE]</text>
<polygon fill="none" stroke="black" points="569.94,-1104.4 569.94,-1135.2 843.89,-1135.2 843.89,-1104.4 569.94,-1104.4"/>
<text text-anchor="start" x="576.94" y="-1116.6" font-family="Arial" font-size="14.00">id </text>
<text text-anchor="start" x="591.72" y="-1116.6" font-family="Arial" font-size="14.00" fill="#666666">[uuid]</text>
<polygon fill="none" stroke="black" points="569.94,-1073.6 569.94,-1104.4 843.89,-1104.4 843.89,-1073.6 569.94,-1073.6"/>
<text text-anchor="start" x="576.94" y="-1085.8" font-family="Arial" font-size="14.00">user_id </text>
<text text-anchor="start" x="626.74" y="-1085.8" font-family="Arial" font-size="14.00" fill="#666666">[uuid]</text>
<polygon fill="none" stroke="black" points="569.94,-1042.8 569.94,-1073.6 843.89,-1073.6 843.89,-1042.8 569.94,-1042.8"/>
<text text-anchor="start" x="576.94" y="-1055" font-family="Arial" font-size="14.00">category_id </text>
<text text-anchor="start" x="653.21" y="-1055" font-family="Arial" font-size="14.00" fill="#666666">[uuid]</text>
<polygon fill="none" stroke="black" points="569.94,-1012 569.94,-1042.8 843.89,-1042.8 843.89,-1012 569.94,-1012"/>
<text text-anchor="start" x="576.94" y="-1024.2" font-family="Arial" font-size="14.00">item_id </text>
<text text-anchor="start" x="625.96" y="-1024.2" font-family="Arial" font-size="14.00" fill="#666666">[uuid]</text>
<polygon fill="none" stroke="black" points="569.94,-981.2 569.94,-1012 843.89,-1012 843.89,-981.2 569.94,-981.2"/>
<text text-anchor="start" x="576.94" y="-993.4" font-family="Arial" font-size="14.00">amount_minor </text>
<text text-anchor="start" x="670.32" y="-993.4" font-family="Arial" font-size="14.00" fill="#666666">[bigint]</text>
<polygon fill="none" stroke="black" points="569.94,-950.4 569.94,-981.2 843.89,-981.2 843.89,-950.4 569.94,-950.4"/>
<text text-anchor="start" x="576.94" y="-962.6" font-family="Arial" font-size="14.00">currency </text>
<text text-anchor="start" x="634.51" y="-962.6" font-family="Arial" font-size="14.00" fill="#666666">[character(3)]</text>
<polygon fill="none" stroke="black" points="569.94,-919.6 569.94,-950.4 843.89,-950.4 843.89,-919.6 569.94,-919.6"/>
<text text-anchor="start" x="576.94" y="-931.8" font-family="Arial" font-size="14.00">home_amount_minor </text>
<text text-anchor="start" x="713.12" y="-931.8" font-family="Arial" font-size="14.00" fill="#666666">[bigint]</text>
<polygon fill="none" stroke="black" points="569.94,-888.8 569.94,-919.6 843.89,-919.6 843.89,-888.8 569.94,-888.8"/>
<text text-anchor="start" x="576.94" y="-901" font-family="Arial" font-size="14.00">home_currency </text>
<text text-anchor="start" x="677.32" y="-901" font-family="Arial" font-size="14.00" fill="#666666">[character(3)]</text>
<polygon fill="none" stroke="black" points="569.94,-858 569.94,-888.8 843.89,-888.8 843.89,-858 569.94,-858"/>
<text text-anchor="start" x="576.94" y="-870.2" font-family="Arial" font-size="14.00">fx_rate_used </text>
<text text-anchor="start" x="661.77" y="-870.2" font-family="Arial" font-size="14.00" fill="#666666">[numeric(18,8)]</text>
<polygon fill="none" stroke="black" points="569.94,-827.2 569.94,-858 843.89,-858 843.89,-827.2 569.94,-827.2"/>
<text text-anchor="start" x="576.94" y="-839.4" font-family="Arial" font-size="14.00">occurred_at </text>
<text text-anchor="start" x="654.76" y="-839.4" font-family="Arial" font-size="14.00" fill="#666666">[timestamp with time zone]</text>
<polygon fill="none" stroke="black" points="569.94,-796.4 569.94,-827.2 843.89,-827.2 843.89,-796.4 569.94,-796.4"/>
<text text-anchor="start" x="576.94" y="-808.6" font-family="Arial" font-size="14.00">note </text>
<text text-anchor="start" x="608.07" y="-808.6" font-family="Arial" font-size="14.00" fill="#666666">[text]</text>
<polygon fill="none" stroke="black" points="569.94,-765.6 569.94,-796.4 843.89,-796.4 843.89,-765.6 569.94,-765.6"/>
<text text-anchor="start" x="576.94" y="-777.8" font-family="Arial" font-size="14.00">reversed_of </text>
<text text-anchor="start" x="654.76" y="-777.8" font-family="Arial" font-size="14.00" fill="#666666">[uuid]</text>
<polygon fill="none" stroke="black" points="569.94,-734.8 569.94,-765.6 843.89,-765.6 843.89,-734.8 569.94,-734.8"/>
<text text-anchor="start" x="576.94" y="-747" font-family="Arial" font-size="14.00">created_at </text>
<text text-anchor="start" x="646.98" y="-747" font-family="Arial" font-size="14.00" fill="#666666">[timestamp with time zone]</text>
</g>
<!-- public.transactions&#45;&gt;public.categories -->
<g id="edge3" class="edge">
<title>public.transactions:user_id&#45;&gt;public.categories:user_id</title>
<path fill="none" stroke="black" d="M560,-1083.71C524.74,-1039.48 526.43,-732.01 517.91,-691.6 502.24,-617.22 545.4,-527.6 469.38,-527.6"/>
<polygon fill="black" stroke="black" points="560.05,-1083.73 566.36,-1092.7 564.63,-1086.45 568.36,-1088.66 568.36,-1088.66 568.36,-1088.66 564.63,-1086.45 570.94,-1084.96 560.05,-1083.73"/>
<text text-anchor="start" x="575.94" y="-1099" font-family="Arial" font-size="10.00">FOREIGN KEY (user_id, category_id) REFERENCES categories(user_id, id) ON DELETE RESTRICT</text>
</g>
</g>
</svg>
