<?xml version="1.0" encoding="UTF-8" standalone="no"?>
<!DOCTYPE svg PUBLIC "-//W3C//DTD SVG 1.1//EN"
 "http://www.w3.org/Graphics/SVG/1.1/DTD/svg11.dtd">
<!-- Generated by graphviz version 12.1.2 (20240928.0832)
 -->
<!-- Title: public.users Pages: 1 -->
<svg width="2315pt" height="879pt"
 viewBox="0.00 0.00 2315.20 879.20" xmlns="http://www.w3.org/2000/svg" xmlns:xlink="http://www.w3.org/1999/xlink">
<g id="graph0" class="graph" transform="scale(1 1) rotate(0) translate(4 875.2)">
<title>public.users</title>
<polygon fill="white" stroke="none" points="-4,4 -4,-875.2 2311.2,-875.2 2311.2,4 -4,4"/>
<!-- public.users -->
<g id="node1" class="node">
<title>public.users</title>
<polygon fill="#efefef" stroke="none" points="1002.79,-231 1002.79,-266.6 1252.57,-266.6 1252.57,-231 1002.79,-231"/>
<polygon fill="none" stroke="black" points="1002.79,-231 1002.79,-266.6 1252.57,-266.6 1252.57,-231 1002.79,-231"/>
<text text-anchor="start" x="1022.19" y="-244.4" font-family="Arial Bold" font-size="18.00">public.users</text>
<text text-anchor="start" x="1108.68" y="-244.4" font-family="Arial" font-size="14.00">    </text>
<text text-anchor="start" x="1139.79" y="-244.4" font-family="Arial" font-size="14.00" fill="#666666">[BASE TABLE]</text>
<polygon fill="none" stroke="black" points="1002.79,-200.2 1002.79,-231 1252.57,-231 1252.57,-200.2 1002.79,-200.2"/>
<text text-anchor="start" x="1009.79" y="-212.4" font-family="Arial" font-size="14.00">id </text>
<text text-anchor="start" x="1024.58" y="-212.4" font-family="Arial" font-size="14.00" fill="#666666">[uuid]</text>
<polygon fill="none" stroke="black" points="1002.79,-169.4 1002.79,-200.2 1252.57,-200.2 1252.57,-169.4 1002.79,-169.4"/>
<text text-anchor="start" x="1009.79" y="-181.6" font-family="Arial" font-size="14.00">email </text>
<text text-anchor="start" x="1047.14" y="-181.6" font-family="Arial" font-size="14.00" fill="#666666">[citext]</text>
<polygon fill="none" stroke="black" points="1002.79,-138.6 1002.79,-169.4 1252.57,-169.4 1252.57,-138.6 1002.79,-138.6"/>
<text text-anchor="start" x="1009.79" y="-150.8" font-family="Arial" font-size="14.00">timezone </text>
<text text-anchor="start" x="1070.49" y="-150.8" font-family="Arial" font-size="14.00" fill="#666666">[text]</text>
<polygon fill="none" stroke="black" points="1002.79,-107.8 1002.79,-138.6 1252.57,-138.6 1252.57,-107.8 1002.79,-107.8"/>
<text text-anchor="start" x="1009.79" y="-120" font-family="Arial" font-size="14.00">period_anchor_day </text>
<text text-anchor="start" x="1133.55" y="-120" font-family="Arial" font-size="14.00" fill="#666666">[smallint]</text>
<polygon fill="none" stroke="black" points="1002.79,-77 1002.79,-107.8 1252.57,-107.8 1252.57,-77 1002.79,-77"/>
<text text-anchor="start" x="1009.79" y="-89.2" font-family="Arial" font-size="14.00">home_currency </text>
<text text-anchor="start" x="1110.17" y="-89.2" font-family="Arial" font-size="14.00" fill="#666666">[character(3)]</text>
<polygon fill="none" stroke="black" points="1002.79,-46.2 1002.79,-77 1252.57,-77 1252.57,-46.2 1002.79,-46.2"/>
<text text-anchor="start" x="1009.79" y="-58.4" font-family="Arial" font-size="14.00">created_at </text>
<text text-anchor="start" x="1079.84" y="-58.4" font-family="Arial" font-size="14.00" fill="#666666">[timestamp with time zone]</text>
<polygon fill="none" stroke="black" stroke-width="3" points="1001.29,-44.7 1001.29,-268.1 1254.07,-268.1 1254.07,-44.7 1001.29,-44.7"/>
</g>
<!-- public.oauth_identities -->
<g id="node2" class="node">
<title>public.oauth_identities</title>
<polygon fill="#efefef" stroke="none" points="43.2,-684.6 43.2,-720.2 346.16,-720.2 346.16,-684.6 43.2,-684.6"/>
<polygon fill="none" stroke="black" points="43.2,-684.6 43.2,-720.2 346.16,-720.2 346.16,-684.6 43.2,-684.6"/>
<text text-anchor="start" x="50.2" y="-698" font-family="Arial Bold" font-size="18.00">public.oauth_identities</text>
<text text-anchor="start" x="214.67" y="-698" font-family="Arial" font-size="14.00">    </text>
<text text-anchor="start" x="245.79" y="-698" font-family="Arial" font-size="14.00" fill="#666666">[BASE TABLE]</text>
<polygon fill="none" stroke="black" points="43.2,-653.8 43.2,-684.6 346.16,-684.6 346.16,-653.8 43.2,-653.8"/>
<text text-anchor="start" x="50.2" y="-666" font-family="Arial" font-size="14.00">id </text>
<text text-anchor="start" x="64.99" y="-666" font-family="Arial" font-size="14.00" fill="#666666">[uuid]</text>
<polygon fill="none" stroke="black" points="43.2,-623 43.2,-653.8 346.16,-653.8 346.16,-623 43.2,-623"/>
<text text-anchor="start" x="50.2" y="-635.2" font-family="Arial" font-size="14.00">user_id </text>
<text text-anchor="start" x="100.01" y="-635.2" font-family="Arial" font-size="14.00" fill="#666666">[uuid]</text>
<polygon fill="none" stroke="black" points="43.2,-592.2 43.2,-623 346.16,-623 346.16,-592.2 43.2,-592.2"/>
<text text-anchor="start" x="50.2" y="-604.4" font-family="Arial" font-size="14.00">provider </text>
<text text-anchor="start" x="104.67" y="-604.4" font-family="Arial" font-size="14.00" fill="#666666">[text]</text>
<polygon fill="none" stroke="black" points="43.2,-561.4 43.2,-592.2 346.16,-592.2 346.16,-561.4 43.2,-561.4"/>
<text text-anchor="start" x="50.2" y="-573.6" font-family="Arial" font-size="14.00">subject </text>
<text text-anchor="start" x="98.45" y="-573.6" font-family="Arial" font-size="14.00" fill="#666666">[text]</text>
<polygon fill="none" stroke="black" points="43.2,-530.6 43.2,-561.4 346.16,-561.4 346.16,-530.6 43.2,-530.6"/>
<text text-anchor="start" x="50.2" y="-542.8" font-family="Arial" font-size="14.00">created_at </text>
<text text-anchor="start" x="120.25" y="-542.8" font-family="Arial" font-size="14.00" fill="#666666">[timestamp with time zone]</text>
<polygon fill="none" stroke="black" points="43.2,-499.8 43.2,-530.6 346.16,-530.6 346.16,-499.8 43.2,-499.8"/>
<text text-anchor="start" x="50.2" y="-512" font-family="Arial" font-size="14.00">last_login_at </text>
<text text-anchor="start" x="132.7" y="-512" font-family="Arial" font-size="14.00" fill="#666666">[timestamp with time zone]</text>
</g>
<!-- public.oauth_identities&#45;&gt;public.users -->
<g id="edge1" class="edge">
<title>public.oauth_identities:user_id&#45;&gt;public.users:id</title>
<path fill="none" stroke="black" d="M357.1,-636.15C406.03,-611.57 355.08,-393.33 397.68,-348.8 492.71,-249.46 864.32,-215.6 1001.79,-215.6"/>
<polygon fill="black" stroke="black" points="357.24,-636.11 346.49,-633.94 352.04,-637.29 347.81,-638.25 347.81,-638.25 347.81,-638.25 352.04,-637.29 348.48,-642.71 357.24,-636.11"/>
<text text-anchor="start" x="180.18" y="-622.4" font-family="Arial" font-size="10.00">FOREIGN KEY (user_id) REFERENCES users(id) ON DELETE CASCADE</text>
</g>
<!-- public.categories -->
<g id="node3" class="node">
<title>public.categories</title>
<polygon fill="#efefef" stroke="none" points="450.21,-684.6 450.21,-720.2 711.15,-720.2 711.15,-684.6 450.21,-684.6"/>
<polygon fill="none" stroke="black" points="450.21,-684.6 450.21,-720.2 711.15,-720.2 711.15,-684.6 450.21,-684.6"/>
<text text-anchor="start" x="457.21" y="-698" font-family="Arial Bold" font-size="18.00">public.categories</text>
<text text-anchor="start" x="579.66" y="-698" font-family="Arial" font-size="14.00">    </text>
<text text-anchor="start" x="610.78" y="-698" font-family="Arial" font-size="14.00" fill="#666666">[BASE TABLE]</text>
<polygon fill="none" stroke="black" points="450.21,-653.8 450.21,-684.6 711.15,-684.6 711.15,-653.8 450.21,-653.8"/>
<text text-anchor="start" x="457.21" y="-666" font-family="Arial" font-size="14.00">id </text>
<text text-anchor="start" x="472" y="-666" font-family="Arial" font-size="14.00" fill="#666666">[uuid]</text>
<polygon fill="none" stroke="black" points="450.21,-623 450.21,-653.8 711.15,-653.8 711.15,-623 450.21,-623"/>
<text text-anchor="start" x="457.21" y="-635.2" font-family="Arial" font-size="14.00">user_id </text>
<text text-anchor="start" x="507.02" y="-635.2" font-family="Arial" font-size="14.00" fill="#666666">[uuid]</text>
<polygon fill="none" stroke="black" points="450.21,-592.2 450.21,-623 711.15,-623 711.15,-592.2 450.21,-592.2"/>
<text text-anchor="start" x="457.21" y="-604.4" font-family="Arial" font-size="14.00">name </text>
<text text-anchor="start" x="496.12" y="-604.4" font-family="Arial" font-size="14.00" fill="#666666">[text]</text>
<polygon fill="none" stroke="black" points="450.21,-561.4 450.21,-592.2 711.15,-592.2 711.15,-561.4 450.21,-561.4"/>
<text text-anchor="start" x="457.21" y="-573.6" font-family="Arial" font-size="14.00">archived_at </text>
<text text-anchor="start" x="533.48" y="-573.6" font-family="Arial" font-size="14.00" fill="#666666">[timestamp with time zone]</text>
<polygon fill="none" stroke="black" points="450.21,-530.6 450.21,-561.4 711.15,-561.4 711.15,-530.6 450.21,-530.6"/>
<text text-anchor="start" x="457.21" y="-542.8" font-family="Arial" font-size="14.00">created_at </text>
<text text-anchor="start" x="527.26" y="-542.8" font-family="Arial" font-size="14.00" fill="#666666">[timestamp with time zone]</text>
<polygon fill="none" stroke="black" points="450.21,-499.8 450.21,-530.6 711.15,-530.6 711.15,-499.8 450.21,-499.8"/>
<text text-anchor="start" x="457.21" y="-512" font-family="Arial" font-size="14.00">updated_at </text>
<text text-anchor="start" x="531.17" y="-512" font-family="Arial" font-size="14.00" fill="#666666">[timestamp with time zone]</text>
</g>
<!-- public.categories&#45;&gt;public.users -->
<g id="edge2" class="edge">
<title>public.categories:user_id&#45;&gt;public.users:id</title>
<path fill="none" stroke="black" d="M722.17,-636.2C771.94,-612.21 727.93,-399.04 763.68,-348.8 833.98,-250 880.53,-215.6 1001.79,-215.6"/>
<polygon fill="black" stroke="black" points="722.24,-636.18 711.51,-633.93 717.03,-637.33 712.8,-638.26 712.8,-638.26 712.8,-638.26 717.03,-637.33 713.44,-642.72 722.24,-636.18"/>
<text text-anchor="start" x="719.15" y="-648.4" font-family="Arial" font-size="10.00">FOREIGN KEY (user_id) REFERENCES users(id) ON DELETE CASCADE</text>
</g>
<!-- public.items -->
<g id="node4" class="node">
<title>public.items</title>
<polygon fill="#efefef" stroke="none" points="815.68,-715.4 815.68,-751 1071.68,-751 1071.68,-715.4 815.68,-715.4"/>
<polygon fill="none" stroke="black" points="815.68,-715.4 815.68,-751 1071.68,-751 1071.68,-715.4 815.68,-715.4"/>
<text text-anchor="start" x="837.19" y="-728.8" font-family="Arial Bold" font-size="18.00">public.items</text>
<text text-anchor="start" x="925.68" y="-728.8" font-family="Arial" font-size="14.00">    </text>
<text text-anchor="start" x="956.8" y="-728.8" font-family="Arial" font-size="14.00" fill="#666666">[BASE TABLE]</text>
<polygon fill="none" stroke="black" points="815.68,-684.6 815.68,-715.4 1071.68,-715.4 1071.68,-684.6 815.68,-684.6"/>
<text text-anchor="start" x="822.68" y="-696.8" font-family="Arial" font-size="14.00">id </text>
<text text-anchor="start" x="837.47" y="-696.8" font-family="Arial" font-size="14.00" fill="#666666">[uuid]</text>
<polygon fill="none" stroke="black" points="815.68,-653.8 815.68,-684.6 1071.68,-684.6 1071.68,-653.8 815.68,-653.8"/>
<text text-anchor="start" x="822.68" y="-666" font-family="Arial" font-size="14.00">user_id </text>
<text text-anchor="start" x="872.49" y="-666" font-family="Arial" font-size="14.00" fill="#666666">[uuid]</text>
<polygon fill="none" stroke="black" points="815.68,-623 815.68,-653.8 1071.68,-653.8 1071.68,-623 815.68,-623"/>
<text text-anchor="start" x="822.68" y="-635.2" font-family="Arial" font-size="14.00">category_id </text>
<text text-anchor="start" x="898.95" y="-635.2" font-family="Arial" font-size="14.00" fill="#666666">[uuid]</text>
<polygon fill="none" stroke="black" points="815.68,-592.2 815.68,-623 1071.68,-623 1071.68,-592.2 815.68,-592.2"/>
<text text-anchor="start" x="822.68" y="-604.4" font-family="Arial" font-size="14.00">name </text>
<text text-anchor="start" x="861.59" y="-604.4" font-family="Arial" font-size="14.00" fill="#666666">[text]</text>
<polygon fill="none" stroke="black" points="815.68,-561.4 815.68,-592.2 1071.68,-592.2 1071.68,-561.4 815.68,-561.4"/>
<text text-anchor="start" x="822.68" y="-573.6" font-family="Arial" font-size="14.00">importance </text>
<text text-anchor="start" x="895.83" y="-573.6" font-family="Arial" font-size="14.00" fill="#666666">[item_importance]</text>
<polygon fill="none" stroke="black" points="815.68,-530.6 815.68,-561.4 1071.68,-561.4 1071.68,-530.6 815.68,-530.6"/>
<text text-anchor="start" x="822.68" y="-542.8" font-family="Arial" font-size="14.00">archived_at </text>
<text text-anchor="start" x="898.95" y="-542.8" font-family="Arial" font-size="14.00" fill="#666666">[timestamp with time zone]</text>
<polygon fill="none" stroke="black" points="815.68,-499.8 815.68,-530.6 1071.68,-530.6 1071.68,-499.8 815.68,-499.8"/>
<text text-anchor="start" x="822.68" y="-512" font-family="Arial" font-size="14.00">created_at </text>
<text text-anchor="start" x="892.73" y="-512" font-family="Arial" font-size="14.00" fill="#666666">[timestamp with time zone]</text>
<polygon fill="none" stroke="black" points="815.68,-469 815.68,-499.8 1071.68,-499.8 1071.68,-469 815.68,-469"/>
<text text-anchor="start" x="822.68" y="-481.2" font-family="Arial" font-size="14.00">updated_at </text>
<text text-anchor="start" x="896.64" y="-481.2" font-family="Arial" font-size="14.00" fill="#666666">[timestamp with time zone]</text>
</g>
<!-- public.items&#45;&gt;public.users -->
<g id="edge3" class="edge">
<title>public.items:user_id&#45;&gt;public.users:id</title>
<path fill="none" stroke="black" d="M1082.73,-666.48C1121.22,-642.98 1085.37,-474.19 1071.68,-425.8 1055.66,-369.2 1018.98,-369.35 1002.79,-312.8 990.9,-271.27 958.59,-215.6 1001.79,-215.6"/>
<polygon fill="black" stroke="black" points="1082.65,-666.5 1071.82,-664.77 1077.5,-667.89 1073.32,-669.03 1073.32,-669.03 1073.32,-669.03 1077.5,-667.89 1074.18,-673.46 1082.65,-666.5"/>
<text text-anchor="start" x="731.72" y="-679.2" font-family="Arial" font-size="10.00">FOREIGN KEY (user_id) REFERENCES users(id) ON DELETE CASCADE</text>
</g>
<!-- public.transactions -->
<g id="node5" class="node">
<title>public.transactions</title>
<polygon fill="#efefef" stroke="none" points="1175.7,-792.4 1175.7,-828 1449.66,-828 1449.66,-792.4 1175.7,-792.4"/>
<polygon fill="none" stroke="black" points="1175.7,-792.4 1175.7,-828 1449.66,-828 1449.66,-792.4 1175.7,-792.4"/>
<text text-anchor="start" x="1182.7" y="-805.8" font-family="Arial Bold" font-size="18.00">public.transactions</text>
<text text-anchor="start" x="1318.17" y="-805.8" font-family="Arial" font-size="14.00">    </text>
<text text-anchor="start" x="1349.28" y="-805.8" font-family="Arial" font-size="14.00" fill="#666666">[BASE TABLE]</text>
<polygon fill="none" stroke="black" points="1175.7,-761.6 1175.7,-792.4 1449.66,-792.4 1449.66,-761.6 1175.7,-761.6"/>
<text text-anchor="start" x="1182.7" y="-773.8" font-family="Arial" font-size="14.00">id </text>
<text text-anchor="start" x="1197.49" y="-773.8" font-family="Arial" font-size="14.00" fill="#666666">[uuid]</text>
<polygon fill="none" stroke="black" points="1175.7,-730.8 1175.7,-761.6 1449.66,-761.6 1449.66,-730.8 1175.7,-730.8"/>
<text text-anchor="start" x="1182.7" y="-743" font-family="Arial" font-size="14.00">user_id </text>
<text text-anchor="start" x="1232.51" y="-743" font-family="Arial" font-size="14.00" fill="#666666">[uuid]</text>
<polygon fill="none" stroke="black" points="1175.7,-700 1175.7,-730.8 1449.66,-730.8 1449.66,-700 1175.7,-700"/>
<text text-anchor="start" x="1182.7" y="-712.2" font-family="Arial" font-size="14.00">category_id </text>
<text text-anchor="start" x="1258.97" y="-712.2" font-family="Arial" font-size="14.00" fill="#666666">[uuid]</text>
<polygon fill="none" stroke="black" points="1175.7,-669.2 1175.7,-700 1449.66,-700 1449.66,-669.2 1175.7,-669.2"/>
<text text-anchor="start" x="1182.7" y="-681.4" font-family="Arial" font-size="14.00">item_id </text>
<text text-anchor="start" x="1231.72" y="-681.4" font-family="Arial" font-size="14.00" fill="#666666">[uuid]</text>
<polygon fill="none" stroke="black" points="1175.7,-638.4 1175.7,-669.2 1449.66,-669.2 1449.66,-638.4 1175.7,-638.4"/>
<text text-anchor="start" x="1182.7" y="-650.6" font-family="Arial" font-size="14.00">amount_minor </text>
<text text-anchor="start" x="1276.08" y="-650.6" font-family="Arial" font-size="14.00" fill="#666666">[bigint]</text>
<polygon fill="none" stroke="black" points="1175.7,-607.6 1175.7,-638.4 1449.66,-638.4 1449.66,-607.6 1175.7,-607.6"/>
<text text-anchor="start" x="1182.7" y="-619.8" font-family="Arial" font-size="14.00">currency </text>
<text text-anchor="start" x="1240.27" y="-619.8" font-family="Arial" font-size="14.00" fill="#666666">[character(3)]</text>
<polygon fill="none" stroke="black" points="1175.7,-576.8 1175.7,-607.6 1449.66,-607.6 1449.66,-576.8 1175.7,-576.8"/>
<text text-anchor="start" x="1182.7" y="-589" font-family="Arial" font-size="14.00">home_amount_minor </text>
<text text-anchor="start" x="1318.89" y="-589" font-family="Arial" font-size="14.00" fill="#666666">[bigint]</text>
<polygon fill="none" stroke="black" points="1175.7,-546 1175.7,-576.8 1449.66,-576.8 1449.66,-546 1175.7,-546"/>
<text text-anchor="start" x="1182.7" y="-558.2" font-family="Arial" font-size="14.00">home_currency </text>
<text text-anchor="start" x="1283.08" y="-558.2" font-family="Arial" font-size="14.00" fill="#666666">[character(3)]</text>
<polygon fill="none" stroke="black" points="1175.7,-515.2 1175.7,-546 1449.66,-546 1449.66,-515.2 1175.7,-515.2"/>
<text text-anchor="start" x="1182.7" y="-527.4" font-family="Arial" font-size="14.00">fx_rate_used </text>
<text text-anchor="start" x="1267.54" y="-527.4" font-family="Arial" font-size="14.00" fill="#666666">[numeric(18,8)]</text>
<polygon fill="none" stroke="black" points="1175.7,-484.4 1175.7,-515.2 1449.66,-515.2 1449.66,-484.4 1175.7,-484.4"/>
<text text-anchor="start" x="1182.7" y="-496.6" font-family="Arial" font-size="14.00">occurred_at </text>
<text text-anchor="start" x="1260.52" y="-496.6" font-family="Arial" font-size="14.00" fill="#666666">[timestamp with time zone]</text>
<polygon fill="none" stroke="black" points="1175.7,-453.6 1175.7,-484.4 1449.66,-484.4 1449.66,-453.6 1175.7,-453.6"/>
<text text-anchor="start" x="1182.7" y="-465.8" font-family="Arial" font-size="14.00">note </text>
<text text-anchor="start" x="1213.84" y="-465.8" font-family="Arial" font-size="14.00" fill="#666666">[text]</text>
<polygon fill="none" stroke="black" points="1175.7,-422.8 1175.7,-453.6 1449.66,-453.6 1449.66,-422.8 1175.7,-422.8"/>
<text text-anchor="start" x="1182.7" y="-435" font-family="Arial" font-size="14.00">reversed_of </text>
<text text-anchor="start" x="1260.52" y="-435" font-family="Arial" font-size="14.00" fill="#666666">[uuid]</text>
<polygon fill="none" stroke="black" points="1175.7,-392 1175.7,-422.8 1449.66,-422.8 1449.66,-392 1175.7,-392"/>
<text text-anchor="start" x="1182.7" y="-404.2" font-family="Arial" font-size="14.00">created_at </text>
<text text-anchor="start" x="1252.75" y="-404.2" font-family="Arial" font-size="14.00" fill="#666666">[timestamp with time zone]</text>
</g>
<!-- public.transactions&#45;&gt;public.users -->
<g id="edge4" class="edge">
<title>public.transactions:user_id&#45;&gt;public.users:id</title>
<path fill="none" stroke="black" d="M1166.13,-740.82C1133.65,-695.83 1153.68,-383.34 1175.7,-348.8 1195.98,-316.99 1232.16,-344.53 1252.57,-312.8 1275.93,-276.46 1296.77,-215.6 1253.57,-215.6"/>
<polygon fill="black" stroke="black" points="1165.95,-740.7 1172.02,-749.83 1170.47,-743.54 1174.14,-745.84 1174.14,-745.84 1174.14,-745.84 1170.47,-743.54 1176.81,-742.21 1165.95,-740.7"/>
<text text-anchor="start" x="1181.7" y="-756.2" font-family="Arial" font-size="10.00">FOREIGN KEY (user_id) REFERENCES users(id) ON DELETE CASCADE</text>
</g>
<!-- public.user_passwords -->
<g id="node6" class="node">
<title>public.user_passwords</title>
<polygon fill="#efefef" stroke="none" points="1553.7,-638.4 1553.7,-674 1855.66,-674 1855.66,-638.4 1553.7,-638.4"/>
<polygon fill="none" stroke="black" points="1553.7,-638.4 1553.7,-674 1855.66,-674 1855.66,-638.4 1553.7,-638.4"/>
<text text-anchor="start" x="1560.7" y="-651.8" font-family="Arial Bold" font-size="18.00">public.user_passwords</text>
<text text-anchor="start" x="1724.17" y="-651.8" font-family="Arial" font-size="14.00">    </text>
<text text-anchor="start" x="1755.29" y="-651.8" font-family="Arial" font-size="14.00" fill="#666666">[BASE TABLE]</text>
<polygon fill="none" stroke="black" points="1553.7,-607.6 1553.7,-638.4 1855.66,-638.4 1855.66,-607.6 1553.7,-607.6"/>
<text text-anchor="start" x="1560.7" y="-619.8" font-family="Arial" font-size="14.00">user_id </text>
<text text-anchor="start" x="1610.5" y="-619.8" font-family="Arial" font-size="14.00" fill="#666666">[uuid]</text>
<polygon fill="none" stroke="black" points="1553.7,-576.8 1553.7,-607.6 1855.66,-607.6 1855.66,-576.8 1553.7,-576.8"/>
<text text-anchor="start" x="1560.7" y="-589" font-family="Arial" font-size="14.00">password_hash </text>
<text text-anchor="start" x="1662.65" y="-589" font-family="Arial" font-size="14.00" fill="#666666">[text]</text>
<polygon fill="none" stroke="black" points="1553.7,-546 1553.7,-576.8 1855.66,-576.8 1855.66,-546 1553.7,-546"/>
<text text-anchor="start" x="1560.7" y="-558.2" font-family="Arial" font-size="14.00">updated_at </text>
<text text-anchor="start" x="1634.65" y="-558.2" font-family="Arial" font-size="14.00" fill="#666666">[timestamp with time zone]</text>
</g>
<!-- public.user_passwords&#45;&gt;public.users -->
<g id="edge5" class="edge">
<title>public.user_passwords:user_id&#45;&gt;public.users:id</title>
<path fill="none" stroke="black" d="M1542.6,-620.62C1496.16,-596.49 1536.03,-395.81 1501.68,-348.8 1427.84,-247.74 1378.72,-215.6 1253.57,-215.6"/>
<polygon fill="black" stroke="black" points="1542.64,-620.63 1551.34,-627.3 1547.83,-621.85 1552.05,-622.85 1552.05,-622.85 1552.05,-622.85 1547.83,-621.85 1553.4,-618.54 1542.64,-620.63"/>
<text text-anchor="start" x="1559.7" y="-633" font-family="Arial" font-size="10.00">FOREIGN KEY (user_id) REFERENCES users(id) ON DELETE CASCADE</text>
</g>
<!-- public.sessions -->
<g id="node7" class="node">
<title>public.sessions</title>
<polygon fill="#efefef" stroke="none" points="1960.24,-730.8 1960.24,-766.4 2213.12,-766.4 2213.12,-730.8 1960.24,-730.8"/>
<polygon fill="none" stroke="black" points="1960.24,-730.8 1960.24,-766.4 2213.12,-766.4 2213.12,-730.8 1960.24,-730.8"/>
<text text-anchor="start" x="1970.18" y="-744.2" font-family="Arial Bold" font-size="18.00">public.sessions</text>
<text text-anchor="start" x="2078.69" y="-744.2" font-family="Arial" font-size="14.00">    </text>
<text text-anchor="start" x="2109.8" y="-744.2" font-family="Arial" font-size="14.00" fill="#666666">[BASE TABLE]</text>
<polygon fill="none" stroke="black" points="1960.24,-700 1960.24,-730.8 2213.12,-730.8 2213.12,-700 1960.24,-700"/>
<text text-anchor="start" x="1967.24" y="-712.2" font-family="Arial" font-size="14.00">id </text>
<text text-anchor="start" x="1982.02" y="-712.2" font-family="Arial" font-size="14.00" fill="#666666">[uuid]</text>
<polygon fill="none" stroke="black" points="1960.24,-669.2 1960.24,-700 2213.12,-700 2213.12,-669.2 1960.24,-669.2"/>
<text text-anchor="start" x="1967.24" y="-681.4" font-family="Arial" font-size="14.00">user_id </text>
<text text-anchor="start" x="2017.05" y="-681.4" font-family="Arial" font-size="14.00" fill="#666666">[uuid]</text>
<polygon fill="none" stroke="black" points="1960.24,-638.4 1960.24,-669.2 2213.12,-669.2 2213.12,-638.4 1960.24,-638.4"/>
<text text-anchor="start" x="1967.24" y="-650.6" font-family="Arial" font-size="14.00">refresh_token_hash </text>
<text text-anchor="start" x="2094.88" y="-650.6" font-family="Arial" font-size="14.00" fill="#666666">[text]</text>
<polygon fill="none" stroke="black" points="1960.24,-607.6 1960.24,-638.4 2213.12,-638.4 2213.12,-607.6 1960.24,-607.6"/>
<text text-anchor="start" x="1967.24" y="-619.8" font-family="Arial" font-size="14.00">created_at </text>
<text text-anchor="start" x="2037.29" y="-619.8" font-family="Arial" font-size="14.00" fill="#666666">[timestamp with time zone]</text>
<polygon fill="none" stroke="black" points="1960.24,-576.8 1960.24,-607.6 2213.12,-607.6 2213.12,-576.8 1960.24,-576.8"/>
<text text-anchor="start" x="1967.24" y="-589" font-family="Arial" font-size="14.00">expires_at </text>
<text text-anchor="start" x="2035.72" y="-589" font-family="Arial" font-size="14.00" fill="#666666">[timestamp with time zone]</text>
<polygon fill="none" stroke="black" points="1960.24,-546 1960.24,-576.8 2213.12,-576.8 2213.12,-546 1960.24,-546"/>
<text text-anchor="start" x="1967.24" y="-558.2" font-family="Arial" font-size="14.00">revoked_at </text>
<text text-anchor="start" x="2040.4" y="-558.2" font-family="Arial" font-size="14.00" fill="#666666">[timestamp with time zone]</text>
<polygon fill="none" stroke="black" points="1960.24,-515.2 1960.24,-546 2213.12,-546 2213.12,-515.2 1960.24,-515.2"/>
<text text-anchor="start" x="1967.24" y="-527.4" font-family="Arial" font-size="14.00">user_agent </text>
<text text-anchor="start" x="2041.18" y="-527.4" font-family="Arial" font-size="14.00" fill="#666666">[text]</text>
<polygon fill="none" stroke="black" points="1960.24,-484.4 1960.24,-515.2 2213.12,-515.2 2213.12,-484.4 1960.24,-484.4"/>
<text text-anchor="start" x="1967.24" y="-496.6" font-family="Arial" font-size="14.00">ip </text>
<text text-anchor="start" x="1982.02" y="-496.6" font-family="Arial" font-size="14.00" fill="#666666">[inet]</text>
<polygon fill="none" stroke="black" points="1960.24,-453.6 1960.24,-484.4 2213.12,-484.4 2213.12,-453.6 1960.24,-453.6"/>
<text text-anchor="start" x="1967.24" y="-465.8" font-family="Arial" font-size="14.00">meta </text>
<text text-anchor="start" x="2002.25" y="-465.8" font-family="Arial" font-size="14.00" fill="#666666">[jsonb]</text>
</g>
<!-- public.sessions&#45;&gt;public.users -->
<g id="edge6" class="edge">
<title>public.sessions:user_id&#45;&gt;public.users:id</title>
<path fill="none" stroke="black" d="M1949.23,-682.65C1890.86,-657.69 1957.21,-400.79 1907.68,-348.8 1805.36,-241.39 1401.91,-215.6 1253.57,-215.6"/>
<polygon fill="black" stroke="black" points="1949.1,-682.62 1958.05,-688.95 1954.33,-683.64 1958.58,-684.47 1958.58,-684.47 1958.58,-684.47 1954.33,-683.64 1959.77,-680.12 1949.1,-682.62"/>
<text text-anchor="start" x="1966.24" y="-694.6" font-family="Arial" font-size="10.00">FOREIGN KEY (user_id) REFERENCES users(id) ON DELETE CASCADE</text>
</g>
</g>
</svg>
