<?xml version="1.0" encoding="UTF-8" standalone="no"?>
<!DOCTYPE svg PUBLIC "-//W3C//DTD SVG 1.1//EN"
 "http://www.w3.org/Graphics/SVG/1.1/DTD/svg11.dtd">
<!-- Generated by graphviz version 12.1.2 (20240928.0832)
 -->
<!-- Title: public.user_passwords Pages: 1 -->
<svg width="705pt" height="571pt"
 viewBox="0.00 0.00 705.13 571.20" xmlns="http://www.w3.org/2000/svg" xmlns:xlink="http://www.w3.org/1999/xlink">
<g id="graph0" class="graph" transform="scale(1 1) rotate(0) translate(4 567.2)">
<title>public.user_passwords</title>
<polygon fill="white" stroke="none" points="-4,4 -4,-567.2 701.13,-567.2 701.13,4 -4,4"/>
<!-- public.user_passwords -->
<g id="node1" class="node">
<title>public.user_passwords</title>
<polygon fill="#efefef" stroke="none" points="46.2,-481.4 46.2,-517 348.17,-517 348.17,-481.4 46.2,-481.4"/>
<polygon fill="none" stroke="black" points="46.2,-481.4 46.2,-517 348.17,-517 348.17,-481.4 46.2,-481.4"/>
<text text-anchor="start" x="53.2" y="-494.8" font-family="Arial Bold" font-size="18.00">public.user_passwords</text>
<text text-anchor="start" x="216.68" y="-494.8" font-family="Arial" font-size="14.00">    </text>
<text text-anchor="start" x="247.79" y="-494.8" font-family="Arial" font-size="14.00" fill="#666666">[BASE TABLE]</text>
<polygon fill="none" stroke="black" points="46.2,-450.6 46.2,-481.4 348.17,-481.4 348.17,-450.6 46.2,-450.6"/>
<text text-anchor="start" x="53.2" y="-462.8" font-family="Arial" font-size="14.00">user_id </text>
<text text-anchor="start" x="103.01" y="-462.8" font-family="Arial" font-size="14.00" fill="#666666">[uuid]</text>
<polygon fill="none" stroke="black" points="46.2,-419.8 46.2,-450.6 348.17,-450.6 348.17,-419.8 46.2,-419.8"/>
<text text-anchor="start" x="53.2" y="-432" font-family="Arial" font-size="14.00">password_hash </text>
<text text-anchor="start" x="155.15" y="-432" font-family="Arial" font-size="14.00" fill="#666666">[text]</text>
<polygon fill="none" stroke="black" points="46.2,-389 46.2,-419.8 348.17,-419.8 348.17,-389 46.2,-389"/>
<text text-anchor="start" x="53.2" y="-401.2" font-family="Arial" font-size="14.00">updated_at </text>
<text text-anchor="start" x="127.16" y="-401.2" font-family="Arial" font-size="14.00" fill="#666666">[timestamp with time zone]</text>
<polygon fill="none" stroke="black" stroke-width="3" points="44.7,-387.5 44.7,-518.5 349.67,-518.5 349.67,-387.5 44.7,-387.5"/>
</g>
<!-- public.users -->
<g id="node2" class="node">
<title>public.users</title>
<polygon fill="#efefef" stroke="none" points="72.3,-228 72.3,-263.6 322.07,-263.6 322.07,-228 72.3,-228"/>
<polygon fill="none" stroke="black" points="72.3,-228 72.3,-263.6 322.07,-263.6 322.07,-228 72.3,-228"/>
<text text-anchor="start" x="91.7" y="-241.4" font-family="Arial Bold" font-size="18.00">public.users</text>
<text text-anchor="start" x="178.18" y="-241.4" font-family="Arial" font-size="14.00">    </text>
<text text-anchor="start" x="209.3" y="-241.4" font-family="Arial" font-size="14.00" fill="#666666">[BASE TABLE]</text>
<polygon fill="none" stroke="black" points="72.3,-197.2 72.3,-228 322.07,-228 322.07,-197.2 72.3,-197.2"/>
<text text-anchor="start" x="79.3" y="-209.4" font-family="Arial" font-size="14.00">id </text>
<text text-anchor="start" x="94.08" y="-209.4" font-family="Arial" font-size="14.00" fill="#666666">[uuid]</text>
<polygon fill="none" stroke="black" points="72.3,-166.4 72.3,-197.2 322.07,-197.2 322.07,-166.4 72.3,-166.4"/>
<text text-anchor="start" x="79.3" y="-178.6" font-family="Arial" font-size="14.00">email </text>
<text text-anchor="start" x="116.64" y="-178.6" font-family="Arial" font-size="14.00" fill="#666666">[citext]</text>
<polygon fill="none" stroke="black" points="72.3,-135.6 72.3,-166.4 322.07,-166.4 322.07,-135.6 72.3,-135.6"/>
<text text-anchor="start" x="79.3" y="-147.8" font-family="Arial" font-size="14.00">timezone </text>
<text text-anchor="start" x="139.99" y="-147.8" font-family="Arial" font-size="14.00" fill="#666666">[text]</text>
<polygon fill="none" stroke="black" points="72.3,-104.8 72.3,-135.6 322.07,-135.6 322.07,-104.8 72.3,-104.8"/>
<text text-anchor="start" x="79.3" y="-117" font-family="Arial" font-size="14.00">period_anchor_day </text>
<text text-anchor="start" x="203.05" y="-117" font-family="Arial" font-size="14.00" fill="#666666">[smallint]</text>
<polygon fill="none" stroke="black" points="72.3,-74 72.3,-104.8 322.07,-104.8 322.07,-74 72.3,-74"/>
<text text-anchor="start" x="79.3" y="-86.2" font-family="Arial" font-size="14.00">home_currency </text>
<text text-anchor="start" x="179.68" y="-86.2" font-family="Arial" font-size="14.00" fill="#666666">[character(3)]</text>
<polygon fill="none" stroke="black" points="72.3,-43.2 72.3,-74 322.07,-74 322.07,-43.2 72.3,-43.2"/>
<text text-anchor="start" x="79.3" y="-55.4" font-family="Arial" font-size="14.00">created_at </text>
<text text-anchor="start" x="149.35" y="-55.4" font-family="Arial" font-size="14.00" fill="#666666">[timestamp with time zone]</text>
</g>
<!-- public.user_passwords&#45;&gt;public.users -->
<g id="edge1" class="edge">
<title>public.user_passwords:user_id&#45;&gt;public.users:id</title>
<path fill="none" stroke="black" d="M359.37,-465.27C460.67,-450.41 432.75,-212.6 323.07,-212.6"/>
<polygon fill="black" stroke="black" points="359.47,-465.27 349.18,-461.49 354.15,-465.64 349.83,-465.95 349.83,-465.95 349.83,-465.95 354.15,-465.64 349.82,-470.46 359.47,-465.27"/>
<text text-anchor="start" x="356.17" y="-476" font-family="Arial" font-size="10.00">FOREIGN KEY (user_id) REFERENCES users(id) ON DELETE CASCADE</text>
</g>
</g>
</svg>
