<?xml version="1.0" encoding="UTF-8" standalone="no"?>
<!DOCTYPE svg PUBLIC "-//W3C//DTD SVG 1.1//EN"
 "http://www.w3.org/Graphics/SVG/1.1/DTD/svg11.dtd">
<!-- Generated by graphviz version 12.1.2 (20240928.0832)
 -->
<!-- Title: public.sessions Pages: 1 -->
<svg width="656pt" height="756pt"
 viewBox="0.00 0.00 656.04 756.00" xmlns="http://www.w3.org/2000/svg" xmlns:xlink="http://www.w3.org/1999/xlink">
<g id="graph0" class="graph" transform="scale(1 1) rotate(0) translate(4 752)">
<title>public.sessions</title>
<polygon fill="white" stroke="none" points="-4,4 -4,-752 652.04,-752 652.04,4 -4,4"/>
<!-- public.sessions -->
<g id="node1" class="node">
<title>public.sessions</title>
<polygon fill="#efefef" stroke="none" points="46.2,-666.2 46.2,-701.8 299.08,-701.8 299.08,-666.2 46.2,-666.2"/>
<polygon fill="none" stroke="black" points="46.2,-666.2 46.2,-701.8 299.08,-701.8 299.08,-666.2 46.2,-666.2"/>
<text text-anchor="start" x="56.15" y="-679.6" font-family="Arial Bold" font-size="18.00">public.sessions</text>
<text text-anchor="start" x="164.65" y="-679.6" font-family="Arial" font-size="14.00">    </text>
<text text-anchor="start" x="195.76" y="-679.6" font-family="Arial" font-size="14.00" fill="#666666">[BASE TABLE]</text>
<polygon fill="none" stroke="black" points="46.2,-635.4 46.2,-666.2 299.08,-666.2 299.08,-635.4 46.2,-635.4"/>
<text text-anchor="start" x="53.2" y="-647.6" font-family="Arial" font-size="14.00">id </text>
<text text-anchor="start" x="67.99" y="-647.6" font-family="Arial" font-size="14.00" fill="#666666">[uuid]</text>
<polygon fill="none" stroke="black" points="46.2,-604.6 46.2,-635.4 299.08,-635.4 299.08,-604.6 46.2,-604.6"/>
<text text-anchor="start" x="53.2" y="-616.8" font-family="Arial" font-size="14.00">user_id </text>
<text text-anchor="start" x="103.01" y="-616.8" font-family="Arial" font-size="14.00" fill="#666666">[uuid]</text>
<polygon fill="none" stroke="black" points="46.2,-573.8 46.2,-604.6 299.08,-604.6 299.08,-573.8 46.2,-573.8"/>
<text text-anchor="start" x="53.2" y="-586" font-family="Arial" font-size="14.00">refresh_token_hash </text>
<text text-anchor="start" x="180.84" y="-586" font-family="Arial" font-size="14.00" fill="#666666">[text]</text>
<polygon fill="none" stroke="black" points="46.2,-543 46.2,-573.8 299.08,-573.8 299.08,-543 46.2,-543"/>
<text text-anchor="start" x="53.2" y="-555.2" font-family="Arial" font-size="14.00">created_at </text>
<text text-anchor="start" x="123.25" y="-555.2" font-family="Arial" font-size="14.00" fill="#666666">[timestamp with time zone]</text>
<polygon fill="none" stroke="black" points="46.2,-512.2 46.2,-543 299.08,-543 299.08,-512.2 46.2,-512.2"/>
<text text-anchor="start" x="53.2" y="-524.4" font-family="Arial" font-size="14.00">expires_at </text>
<text text-anchor="start" x="121.68" y="-524.4" font-family="Arial" font-size="14.00" fill="#666666">[timestamp with time zone]</text>
<polygon fill="none" stroke="black" points="46.2,-481.4 46.2,-512.2 299.08,-512.2 299.08,-481.4 46.2,-481.4"/>
<text text-anchor="start" x="53.2" y="-493.6" font-family="Arial" font-size="14.00">revoked_at </text>
<text text-anchor="start" x="126.36" y="-493.6" font-family="Arial" font-size="14.00" fill="#666666">[timestamp with time zone]</text>
<polygon fill="none" stroke="black" points="46.2,-450.6 46.2,-481.4 299.08,-481.4 299.08,-450.6 46.2,-450.6"/>
<text text-anchor="start" x="53.2" y="-462.8" font-family="Arial" font-size="14.00">user_agent </text>
<text text-anchor="start" x="127.14" y="-462.8" font-family="Arial" font-size="14.00" fill="#666666">[text]</text>
<polygon fill="none" stroke="black" points="46.2,-419.8 46.2,-450.6 299.08,-450.6 299.08,-419.8 46.2,-419.8"/>
<text text-anchor="start" x="53.2" y="-432" font-family="Arial" font-size="14.00">ip </text>
<text text-anchor="start" x="67.99" y="-432" font-family="Arial" font-size="14.00" fill="#666666">[inet]</text>
<polygon fill="none" stroke="black" points="46.2,-389 46.2,-419.8 299.08,-419.8 299.08,-389 46.2,-389"/>
<text text-anchor="start" x="53.2" y="-401.2" font-family="Arial" font-size="14.00">meta </text>
<text text-anchor="start" x="88.21" y="-401.2" font-family="Arial" font-size="14.00" fill="#666666">[jsonb]</text>
<polygon fill="none" stroke="black" stroke-width="3" points="44.7,-387.5 44.7,-703.3 300.58,-703.3 300.58,-387.5 44.7,-387.5"/>
</g>
<!-- public.users -->
<g id="node2" class="node">
<title>public.users</title>
<polygon fill="#efefef" stroke="none" points="47.76,-228 47.76,-263.6 297.53,-263.6 297.53,-228 47.76,-228"/>
<polygon fill="none" stroke="black" points="47.76,-228 47.76,-263.6 297.53,-263.6 297.53,-228 47.76,-228"/>
<text text-anchor="start" x="67.15" y="-241.4" font-family="Arial Bold" font-size="18.00">public.users</text>
<text text-anchor="start" x="153.64" y="-241.4" font-family="Arial" font-size="14.00">    </text>
<text text-anchor="start" x="184.76" y="-241.4" font-family="Arial" font-size="14.00" fill="#666666">[BASE TABLE]</text>
<polygon fill="none" stroke="black" points="47.76,-197.2 47.76,-228 297.53,-228 297.53,-197.2 47.76,-197.2"/>
<text text-anchor="start" x="54.76" y="-209.4" font-family="Arial" font-size="14.00">id </text>
<text text-anchor="start" x="69.54" y="-209.4" font-family="Arial" font-size="14.00" fill="#666666">[uuid]</text>
<polygon fill="none" stroke="black" points="47.76,-166.4 47.76,-197.2 297.53,-197.2 297.53,-166.4 47.76,-166.4"/>
<text text-anchor="start" x="54.76" y="-178.6" font-family="Arial" font-size="14.00">email </text>
<text text-anchor="start" x="92.1" y="-178.6" font-family="Arial" font-size="14.00" fill="#666666">[citext]</text>
<polygon fill="none" stroke="black" points="47.76,-135.6 47.76,-166.4 297.53,-166.4 297.53,-135.6 47.76,-135.6"/>
<text text-anchor="start" x="54.76" y="-147.8" font-family="Arial" font-size="14.00">timezone </text>
<text text-anchor="start" x="115.45" y="-147.8" font-family="Arial" font-size="14.00" fill="#666666">[text]</text>
<polygon fill="none" stroke="black" points="47.76,-104.8 47.76,-135.6 297.53,-135.6 297.53,-104.8 47.76,-104.8"/>
<text text-anchor="start" x="54.76" y="-117" font-family="Arial" font-size="14.00">period_anchor_day </text>
<text text-anchor="start" x="178.51" y="-117" font-family="Arial" font-size="14.00" fill="#666666">[smallint]</text>
<polygon fill="none" stroke="black" points="47.76,-74 47.76,-104.8 297.53,-104.8 297.53,-74 47.76,-74"/>
<text text-anchor="start" x="54.76" y="-86.2" font-family="Arial" font-size="14.00">home_currency </text>
<text text-anchor="start" x="155.13" y="-86.2" font-family="Arial" font-size="14.00" fill="#666666">[character(3)]</text>
<polygon fill="none" stroke="black" points="47.76,-43.2 47.76,-74 297.53,-74 297.53,-43.2 47.76,-43.2"/>
<text text-anchor="start" x="54.76" y="-55.4" font-family="Arial" font-size="14.00">created_at </text>
<text text-anchor="start" x="124.8" y="-55.4" font-family="Arial" font-size="14.00" fill="#666666">[timestamp with time zone]</text>
</g>
<!-- public.sessions&#45;&gt;public.users -->
<g id="edge1" class="edge">
<title>public.sessions:user_id&#45;&gt;public.users:id</title>
<path fill="none" stroke="black" d="M310.27,-618.18C390.36,-588.79 385.52,-212.6 298.53,-212.6"/>
<polygon fill="black" stroke="black" points="310.26,-618.19 299.62,-615.51 305,-619.12 300.74,-619.88 300.74,-619.88 300.74,-619.88 305,-619.12 301.2,-624.37 310.26,-618.19"/>
<text text-anchor="start" x="307.08" y="-630" font-family="Arial" font-size="10.00">FOREIGN KEY (user_id) REFERENCES users(id) ON DELETE CASCADE</text>
</g>
</g>
</svg>
