<?xml version="1.0" encoding="UTF-8" standalone="no"?>
<!DOCTYPE svg PUBLIC "-//W3C//DTD SVG 1.1//EN"
 "http://www.w3.org/Graphics/SVG/1.1/DTD/svg11.dtd">
<!-- Generated by graphviz version 12.1.2 (20240928.0832)
 -->
<!-- Title: public.oauth_identities Pages: 1 -->
<svg width="706pt" height="664pt"
 viewBox="0.00 0.00 706.12 663.60" xmlns="http://www.w3.org/2000/svg" xmlns:xlink="http://www.w3.org/1999/xlink">
<g id="graph0" class="graph" transform="scale(1 1) rotate(0) translate(4 659.6)">
<title>public.oauth_identities</title>
<polygon fill="white" stroke="none" points="-4,4 -4,-659.6 702.12,-659.6 702.12,4 -4,4"/>
<!-- public.oauth_identities -->
<g id="node1" class="node">
<title>public.oauth_identities</title>
<polygon fill="#efefef" stroke="none" points="46.2,-573.8 46.2,-609.4 349.16,-609.4 349.16,-573.8 46.2,-573.8"/>
<polygon fill="none" stroke="black" points="46.2,-573.8 46.2,-609.4 349.16,-609.4 349.16,-573.8 46.2,-573.8"/>
<text text-anchor="start" x="53.2" y="-587.2" font-family="Arial Bold" font-size="18.00">public.oauth_identities</text>
<text text-anchor="start" x="217.67" y="-587.2" font-family="Arial" font-size="14.00">    </text>
<text text-anchor="start" x="248.79" y="-587.2" font-family="Arial" font-size="14.00" fill="#666666">[BASE TABLE]</text>
<polygon fill="none" stroke="black" points="46.2,-543 46.2,-573.8 349.16,-573.8 349.16,-543 46.2,-543"/>
<text text-anchor="start" x="53.2" y="-555.2" font-family="Arial" font-size="14.00">id </text>
<text text-anchor="start" x="67.99" y="-555.2" font-family="Arial" font-size="14.00" fill="#666666">[uuid]</text>
<polygon fill="none" stroke="black" points="46.2,-512.2 46.2,-543 349.16,-543 349.16,-512.2 46.2,-512.2"/>
<text text-anchor="start" x="53.2" y="-524.4" font-family="Arial" font-size="14.00">user_id </text>
<text text-anchor="start" x="103.01" y="-524.4" font-family="Arial" font-size="14.00" fill="#666666">[uuid]</text>
<polygon fill="none" stroke="black" points="46.2,-481.4 46.2,-512.2 349.16,-512.2 349.16,-481.4 46.2,-481.4"/>
<text text-anchor="start" x="53.2" y="-493.6" font-family="Arial" font-size="14.00">provider </text>
<text text-anchor="start" x="107.67" y="-493.6" font-family="Arial" font-size="14.00" fill="#666666">[text]</text>
<polygon fill="none" stroke="black" points="46.2,-450.6 46.2,-481.4 349.16,-481.4 349.16,-450.6 46.2,-450.6"/>
<text text-anchor="start" x="53.2" y="-462.8" font-family="Arial" font-size="14.00">subject </text>
<text text-anchor="start" x="101.45" y="-462.8" font-family="Arial" font-size="14.00" fill="#666666">[text]</text>
<polygon fill="none" stroke="black" points="46.2,-419.8 46.2,-450.6 349.16,-450.6 349.16,-419.8 46.2,-419.8"/>
<text text-anchor="start" x="53.2" y="-432" font-family="Arial" font-size="14.00">created_at </text>
<text text-anchor="start" x="123.25" y="-432" font-family="Arial" font-size="14.00" fill="#666666">[timestamp with time zone]</text>
<polygon fill="none" stroke="black" points="46.2,-389 46.2,-419.8 349.16,-419.8 349.16,-389 46.2,-389"/>
<text text-anchor="start" x="53.2" y="-401.2" font-family="Arial" font-size="14.00">last_login_at </text>
<text text-anchor="start" x="135.7" y="-401.2" font-family="Arial" font-size="14.00" fill="#666666">[timestamp with time zone]</text>
<polygon fill="none" stroke="black" stroke-width="3" points="44.7,-387.5 44.7,-610.9 350.66,-610.9 350.66,-387.5 44.7,-387.5"/>
</g>
<!-- public.users -->
<g id="node2" class="node">
<title>public.users</title>
<polygon fill="#efefef" stroke="none" points="72.79,-228 72.79,-263.6 322.57,-263.6 322.57,-228 72.79,-228"/>
<polygon fill="none" stroke="black" points="72.79,-228 72.79,-263.6 322.57,-263.6 322.57,-228 72.79,-228"/>
<text text-anchor="start" x="92.19" y="-241.4" font-family="Arial Bold" font-size="18.00">public.users</text>
<text text-anchor="start" x="178.68" y="-241.4" font-family="Arial" font-size="14.00">    </text>
<text text-anchor="start" x="209.79" y="-241.4" font-family="Arial" font-size="14.00" fill="#666666">[BASE TABLE]</text>
<polygon fill="none" stroke="black" points="72.79,-197.2 72.79,-228 322.57,-228 322.57,-197.2 72.79,-197.2"/>
<text text-anchor="start" x="79.79" y="-209.4" font-family="Arial" font-size="14.00">id </text>
<text text-anchor="start" x="94.58" y="-209.4" font-family="Arial" font-size="14.00" fill="#666666">[uuid]</text>
<polygon fill="none" stroke="black" points="72.79,-166.4 72.79,-197.2 322.57,-197.2 322.57,-166.4 72.79,-166.4"/>
<text text-anchor="start" x="79.79" y="-178.6" font-family="Arial" font-size="14.00">email </text>
<text text-anchor="start" x="117.14" y="-178.6" font-family="Arial" font-size="14.00" fill="#666666">[citext]</text>
<polygon fill="none" stroke="black" points="72.79,-135.6 72.79,-166.4 322.57,-166.4 322.57,-135.6 72.79,-135.6"/>
<text text-anchor="start" x="79.79" y="-147.8" font-family="Arial" font-size="14.00">timezone </text>
<text text-anchor="start" x="140.49" y="-147.8" font-family="Arial" font-size="14.00" fill="#666666">[text]</text>
<polygon fill="none" stroke="black" points="72.79,-104.8 72.79,-135.6 322.57,-135.6 322.57,-104.8 72.79,-104.8"/>
<text text-anchor="start" x="79.79" y="-117" font-family="Arial" font-size="14.00">period_anchor_day </text>
<text text-anchor="start" x="203.55" y="-117" font-family="Arial" font-size="14.00" fill="#666666">[smallint]</text>
<polygon fill="none" stroke="black" points="72.79,-74 72.79,-104.8 322.57,-104.8 322.57,-74 72.79,-74"/>
<text text-anchor="start" x="79.79" y="-86.2" font-family="Arial" font-size="14.00">home_currency </text>
<text text-anchor="start" x="180.17" y="-86.2" font-family="Arial" font-size="14.00" fill="#666666">[character(3)]</text>
<polygon fill="none" stroke="black" points="72.79,-43.2 72.79,-74 322.57,-74 322.57,-43.2 72.79,-43.2"/>
<text text-anchor="start" x="79.79" y="-55.4" font-family="Arial" font-size="14.00">created_at </text>
<text text-anchor="start" x="149.84" y="-55.4" font-family="Arial" font-size="14.00" fill="#666666">[timestamp with time zone]</text>
</g>
<!-- public.oauth_identities&#45;&gt;public.users -->
<g id="edge1" class="edge">
<title>public.oauth_identities:user_id&#45;&gt;public.users:id</title>
<path fill="none" stroke="black" d="M360.12,-525.25C417.59,-496.42 390.25,-212.6 323.57,-212.6"/>
<polygon fill="black" stroke="black" points="360.22,-525.22 349.45,-523.14 355.02,-526.45 350.81,-527.45 350.81,-527.45 350.81,-527.45 355.02,-526.45 351.52,-531.9 360.22,-525.22"/>
<text text-anchor="start" x="357.16" y="-537.6" font-family="Arial" font-size="10.00">FOREIGN KEY (user_id) REFERENCES users(id) ON DELETE CASCADE</text>
</g>
</g>
</svg>
