<?xml version="1.0" encoding="UTF-8" standalone="no"?>
<!DOCTYPE svg PUBLIC "-//W3C//DTD SVG 1.1//EN"
 "http://www.w3.org/Graphics/SVG/1.1/DTD/svg11.dtd">
<!-- Generated by graphviz version 12.1.2 (20240928.0832)
 -->
<!-- Title: public.items Pages: 1 -->
<svg width="1132pt" height="1284pt"
 viewBox="0.00 0.00 1131.99 1283.60" xmlns="http://www.w3.org/2000/svg" xmlns:xlink="http://www.w3.org/1999/xlink">
<g id="graph0" class="graph" transform="scale(1 1) rotate(0) translate(4 1279.6)">
<title>public.items</title>
<polygon fill="white" stroke="none" points="-4,4 -4,-1279.6 1127.99,-1279.6 1127.99,4 -4,4"/>
<!-- public.items -->
<g id="node1" class="node">
<title>public.items</title>
<polygon fill="#efefef" stroke="none" points="400.09,-635.4 400.09,-671 656.08,-671 656.08,-635.4 400.09,-635.4"/>
<polygon fill="none" stroke="black" points="400.09,-635.4 400.09,-671 656.08,-671 656.08,-635.4 400.09,-635.4"/>
<text text-anchor="start" x="421.6" y="-648.8" font-family="Arial Bold" font-size="18.00">public.items</text>
<text text-anchor="start" x="510.09" y="-648.8" font-family="Arial" font-size="14.00">    </text>
<text text-anchor="start" x="541.2" y="-648.8" font-family="Arial" font-size="14.00" fill="#666666">[BASE TABLE]</text>
<polygon fill="none" stroke="black" points="400.09,-604.6 400.09,-635.4 656.08,-635.4 656.08,-604.6 400.09,-604.6"/>
<text text-anchor="start" x="407.09" y="-616.8" font-family="Arial" font-size="14.00">id </text>
<text text-anchor="start" x="421.88" y="-616.8" font-family="Arial" font-size="14.00" fill="#666666">[uuid]</text>
<polygon fill="none" stroke="black" points="400.09,-573.8 400.09,-604.6 656.08,-604.6 656.08,-573.8 400.09,-573.8"/>
<text text-anchor="start" x="407.09" y="-586" font-family="Arial" font-size="14.00">user_id </text>
<text text-anchor="start" x="456.9" y="-586" font-family="Arial" font-size="14.00" fill="#666666">[uuid]</text>
<polygon fill="none" stroke="black" points="400.09,-543 400.09,-573.8 656.08,-573.8 656.08,-543 400.09,-543"/>
<text text-anchor="start" x="407.09" y="-555.2" font-family="Arial" font-size="14.00">category_id </text>
<text text-anchor="start" x="483.36" y="-555.2" font-family="Arial" font-size="14.00" fill="#666666">[uuid]</text>
<polygon fill="none" stroke="black" points="400.09,-512.2 400.09,-543 656.08,-543 656.08,-512.2 400.09,-512.2"/>
<text text-anchor="start" x="407.09" y="-524.4" font-family="Arial" font-size="14.00">name </text>
<text text-anchor="start" x="446" y="-524.4" font-family="Arial" font-size="14.00" fill="#666666">[text]</text>
<polygon fill="none" stroke="black" points="400.09,-481.4 400.09,-512.2 656.08,-512.2 656.08,-481.4 400.09,-481.4"/>
<text text-anchor="start" x="407.09" y="-493.6" font-family="Arial" font-size="14.00">importance </text>
<text text-anchor="start" x="480.23" y="-493.6" font-family="Arial" font-size="14.00" fill="#666666">[item_importance]</text>
<polygon fill="none" stroke="black" points="400.09,-450.6 400.09,-481.4 656.08,-481.4 656.08,-450.6 400.09,-450.6"/>
<text text-anchor="start" x="407.09" y="-462.8" font-family="Arial" font-size="14.00">archived_at </text>
<text text-anchor="start" x="483.36" y="-462.8" font-family="Arial" font-size="14.00" fill="#666666">[timestamp with time zone]</text>
<polygon fill="none" stroke="black" points="400.09,-419.8 400.09,-450.6 656.08,-450.6 656.08,-419.8 400.09,-419.8"/>
<text text-anchor="start" x="407.09" y="-432" font-family="Arial" font-size="14.00">created_at </text>
<text text-anchor="start" x="477.14" y="-432" font-family="Arial" font-size="14.00" fill="#666666">[timestamp with time zone]</text>
<polygon fill="none" stroke="black" points="400.09,-389 400.09,-419.8 656.08,-419.8 656.08,-389 400.09,-389"/>
<text text-anchor="start" x="407.09" y="-401.2" font-family="Arial" font-size="14.00">updated_at </text>
<text text-anchor="start" x="481.05" y="-401.2" font-family="Arial" font-size="14.00" fill="#666666">[timestamp with time zone]</text>
<polygon fill="none" stroke="black" stroke-width="3" points="398.59,-387.5 398.59,-672.5 657.58,-672.5 657.58,-387.5 398.59,-387.5"/>
</g>
<!-- public.users -->
<g id="node3" class="node">
<title>public.users</title>
<polygon fill="#efefef" stroke="none" points="43.2,-228 43.2,-263.6 292.97,-263.6 292.97,-228 43.2,-228"/>
<polygon fill="none" stroke="black" points="43.2,-228 43.2,-263.6 292.97,-263.6 292.97,-228 43.2,-228"/>
<text text-anchor="start" x="62.6" y="-241.4" font-family="Arial Bold" font-size="18.00">public.users</text>
<text text-anchor="start" x="149.08" y="-241.4" font-family="Arial" font-size="14.00">    </text>
<text text-anchor="start" x="180.2" y="-241.4" font-family="Arial" font-size="14.00" fill="#666666">[BASE TABLE]</text>
<polygon fill="none" stroke="black" points="43.2,-197.2 43.2,-228 292.97,-228 292.97,-197.2 43.2,-197.2"/>
<text text-anchor="start" x="50.2" y="-209.4" font-family="Arial" font-size="14.00">id </text>
<text text-anchor="start" x="64.99" y="-209.4" font-family="Arial" font-size="14.00" fill="#666666">[uuid]</text>
<polygon fill="none" stroke="black" points="43.2,-166.4 43.2,-197.2 292.97,-197.2 292.97,-166.4 43.2,-166.4"/>
<text text-anchor="start" x="50.2" y="-178.6" font-family="Arial" font-size="14.00">email </text>
<text text-anchor="start" x="87.54" y="-178.6" font-family="Arial" font-size="14.00" fill="#666666">[citext]</text>
<polygon fill="none" stroke="black" points="43.2,-135.6 43.2,-166.4 292.97,-166.4 292.97,-135.6 43.2,-135.6"/>
<text text-anchor="start" x="50.2" y="-147.8" font-family="Arial" font-size="14.00">timezone </text>
<text text-anchor="start" x="110.9" y="-147.8" font-family="Arial" font-size="14.00" fill="#666666">[text]</text>
<polygon fill="none" stroke="black" points="43.2,-104.8 43.2,-135.6 292.97,-135.6 292.97,-104.8 43.2,-104.8"/>
<text text-anchor="start" x="50.2" y="-117" font-family="Arial" font-size="14.00">period_anchor_day </text>
<text text-anchor="start" x="173.96" y="-117" font-family="Arial" font-size="14.00" fill="#666666">[smallint]</text>
<polygon fill="none" stroke="black" points="43.2,-74 43.2,-104.8 292.97,-104.8 292.97,-74 43.2,-74"/>
<text text-anchor="start" x="50.2" y="-86.2" font-family="Arial" font-size="14.00">home_currency </text>
<text text-anchor="start" x="150.58" y="-86.2" font-family="Arial" font-size="14.00" fill="#666666">[character(3)]</text>
<polygon fill="none" stroke="black" points="43.2,-43.2 43.2,-74 292.97,-74 292.97,-43.2 43.2,-43.2"/>
<text text-anchor="start" x="50.2" y="-55.4" font-family="Arial" font-size="14.00">created_at </text>
<text text-anchor="start" x="120.25" y="-55.4" font-family="Arial" font-size="14.00" fill="#666666">[timestamp with time zone]</text>
</g>
<!-- public.items&#45;&gt;public.users -->
<g id="edge2" class="edge">
<title>public.items:user_id&#45;&gt;public.users:id</title>
<path fill="none" stroke="black" d="M389.16,-587.35C317.57,-558.94 377.3,-212.6 293.97,-212.6"/>
<polygon fill="black" stroke="black" points="388.93,-587.31 397.94,-593.56 394.17,-588.28 398.43,-589.08 398.43,-589.08 398.43,-589.08 394.17,-588.28 399.58,-584.71 388.93,-587.31"/>
<text text-anchor="start" x="58.13" y="-599.2" font-family="Arial" font-size="10.00">FOREIGN KEY (user_id) REFERENCES users(id) ON DELETE CASCADE</text>
</g>
<!-- public.categories -->
<g id="node4" class="node">
<title>public.categories</title>
<polygon fill="#efefef" stroke="none" points="397.62,-228 397.62,-263.6 658.55,-263.6 658.55,-228 397.62,-228"/>
<polygon fill="none" stroke="black" points="397.62,-228 397.62,-263.6 658.55,-263.6 658.55,-228 397.62,-228"/>
<text text-anchor="start" x="404.62" y="-241.4" font-family="Arial Bold" font-size="18.00">public.categories</text>
<text text-anchor="start" x="527.07" y="-241.4" font-family="Arial" font-size="14.00">    </text>
<text text-anchor="start" x="558.18" y="-241.4" font-family="Arial" font-size="14.00" fill="#666666">[BASE TABLE]</text>
<polygon fill="none" stroke="black" points="397.62,-197.2 397.62,-228 658.55,-228 658.55,-197.2 397.62,-197.2"/>
<text text-anchor="start" x="404.62" y="-209.4" font-family="Arial" font-size="14.00">id </text>
<text text-anchor="start" x="419.4" y="-209.4" font-family="Arial" font-size="14.00" fill="#666666">[uuid]</text>
<polygon fill="none" stroke="black" points="397.62,-166.4 397.62,-197.2 658.55,-197.2 658.55,-166.4 397.62,-166.4"/>
<text text-anchor="start" x="404.62" y="-178.6" font-family="Arial" font-size="14.00">user_id </text>
<text text-anchor="start" x="454.42" y="-178.6" font-family="Arial" font-size="14.00" fill="#666666">[uuid]</text>
<polygon fill="none" stroke="black" points="397.62,-135.6 397.62,-166.4 658.55,-166.4 658.55,-135.6 397.62,-135.6"/>
<text text-anchor="start" x="404.62" y="-147.8" font-family="Arial" font-size="14.00">name </text>
<text text-anchor="start" x="443.53" y="-147.8" font-family="Arial" font-size="14.00" fill="#666666">[text]</text>
<polygon fill="none" stroke="black" points="397.62,-104.8 397.62,-135.6 658.55,-135.6 658.55,-104.8 397.62,-104.8"/>
<text text-anchor="start" x="404.62" y="-117" font-family="Arial" font-size="14.00">archived_at </text>
<text text-anchor="start" x="480.89" y="-117" font-family="Arial" font-size="14.00" fill="#666666">[timestamp with time zone]</text>
<polygon fill="none" stroke="black" points="397.62,-74 397.62,-104.8 658.55,-104.8 658.55,-74 397.62,-74"/>
<text text-anchor="start" x="404.62" y="-86.2" font-family="Arial" font-size="14.00">created_at </text>
<text text-anchor="start" x="474.66" y="-86.2" font-family="Arial" font-size="14.00" fill="#666666">[timestamp with time zone]</text>
<polygon fill="none" stroke="black" points="397.62,-43.2 397.62,-74 658.55,-74 658.55,-43.2 397.62,-43.2"/>
<text text-anchor="start" x="404.62" y="-55.4" font-family="Arial" font-size="14.00">updated_at </text>
<text text-anchor="start" x="478.57" y="-55.4" font-family="Arial" font-size="14.00" fill="#666666">[timestamp with time zone]</text>
</g>
<!-- public.items&#45;&gt;public.categories -->
<g id="edge3" class="edge">
<title>public.items:user_id&#45;&gt;public.categories:user_id</title>
<path fill="none" stroke="black" d="M667.29,-587.38C747.67,-557.99 746.55,-181.8 659.55,-181.8"/>
<polygon fill="black" stroke="black" points="667.26,-587.39 656.62,-584.71 662,-588.32 657.74,-589.08 657.74,-589.08 657.74,-589.08 662,-588.32 658.2,-593.57 667.26,-587.39"/>
<text text-anchor="start" x="664.08" y="-599.2" font-family="Arial" font-size="10.00">FOREIGN KEY (user_id, category_id) REFERENCES categories(user_id, id) ON DELETE RESTRICT</text>
</g>
<!-- public.items&#45;&gt;public.categories -->
<g id="edge4" class="edge">
<title>public.items:category_id&#45;&gt;public.categories:id</title>
<path fill="none" stroke="black" d="M666.99,-556.37C733.99,-528.03 732.95,-212.6 659.55,-212.6"/>
<polygon fill="black" stroke="black" points="667.21,-556.32 656.51,-553.92 661.98,-557.4 657.74,-558.27 657.74,-558.27 657.74,-558.27 661.98,-557.4 658.31,-562.74 667.21,-556.32"/>
<text text-anchor="start" x="664.08" y="-568.4" font-family="Arial" font-size="10.00">FOREIGN KEY (category_id) REFERENCES categories(id) ON DELETE RESTRICT</text>
</g>
<!-- public.transactions -->
<g id="node2" class="node">
<title>public.transactions</title>
<polygon fill="#efefef" stroke="none" points="391.11,-1196.8 391.11,-1232.4 665.06,-1232.4 665.06,-1196.8 391.11,-1196.8"/>
<polygon fill="none" stroke="black" points="391.11,-1196.8 391.11,-1232.4 665.06,-1232.4 665.06,-1196.8 391.11,-1196.8"/>
<text text-anchor="start" x="398.11" y="-1210.2" font-family="Arial Bold" font-size="18.00">public.transactions</text>
<text text-anchor="start" x="533.57" y="-1210.2" font-family="Arial" font-size="14.00">    </text>
<text text-anchor="start" x="564.69" y="-1210.2" font-family="Arial" font-size="14.00" fill="#666666">[BASE TABLE]</text>
<polygon fill="none" stroke="black" points="391.11,-1166 391.11,-1196.8 665.06,-1196.8 665.06,-1166 391.11,-1166"/>
<text text-anchor="start" x="398.11" y="-1178.2" font-family="Arial" font-size="14.00">id </text>
<text text-anchor="start" x="412.89" y="-1178.2" font-family="Arial" font-size="14.00" fill="#666666">[uuid]</text>
<polygon fill="none" stroke="black" points="391.11,-1135.2 391.11,-1166 665.06,-1166 665.06,-1135.2 391.11,-1135.2"/>
<text text-anchor="start" x="398.11" y="-1147.4" font-family="Arial" font-size="14.00">user_id </text>
<text text-anchor="start" x="447.91" y="-1147.4" font-family="Arial" font-size="14.00" fill="#666666">[uuid]</text>
<polygon fill="none" stroke="black" points="391.11,-1104.4 391.11,-1135.2 665.06,-1135.2 665.06,-1104.4 391.11,-1104.4"/>
<text text-anchor="start" x="398.11" y="-1116.6" font-family="Arial" font-size="14.00">category_id </text>
<text text-anchor="start" x="474.38" y="-1116.6" font-family="Arial" font-size="14.00" fill="#666666">[uuid]</text>
<polygon fill="none" stroke="black" points="391.11,-1073.6 391.11,-1104.4 665.06,-1104.4 665.06,-1073.6 391.11,-1073.6"/>
<text text-anchor="start" x="398.11" y="-1085.8" font-family="Arial" font-size="14.00">item_id </text>
<text text-anchor="start" x="447.13" y="-1085.8" font-family="Arial" font-size="14.00" fill="#666666">[uuid]</text>
<polygon fill="none" stroke="black" points="391.11,-1042.8 391.11,-1073.6 665.06,-1073.6 665.06,-1042.8 391.11,-1042.8"/>
<text text-anchor="start" x="398.11" y="-1055" font-family="Arial" font-size="14.00">amount_minor </text>
<text text-anchor="start" x="491.49" y="-1055" font-family="Arial" font-size="14.00" fill="#666666">[bigint]</text>
<polygon fill="none" stroke="black" points="391.11,-1012 391.11,-1042.8 665.06,-1042.8 665.06,-1012 391.11,-1012"/>
<text text-anchor="start" x="398.11" y="-1024.2" font-family="Arial" font-size="14.00">currency </text>
<text text-anchor="start" x="455.68" y="-1024.2" font-family="Arial" font-size="14.00" fill="#666666">[character(3)]</text>
<polygon fill="none" stroke="black" points="391.11,-981.2 391.11,-1012 665.06,-1012 665.06,-981.2 391.11,-981.2"/>
<text text-anchor="start" x="398.11" y="-993.4" font-family="Arial" font-size="14.00">home_amount_minor </text>
<text text-anchor="start" x="534.29" y="-993.4" font-family="Arial" font-size="14.00" fill="#666666">[bigint]</text>
<polygon fill="none" stroke="black" points="391.11,-950.4 391.11,-981.2 665.06,-981.2 665.06,-950.4 391.11,-950.4"/>
<text text-anchor="start" x="398.11" y="-962.6" font-family="Arial" font-size="14.00">home_currency </text>
<text text-anchor="start" x="498.49" y="-962.6" font-family="Arial" font-size="14.00" fill="#666666">[character(3)]</text>
<polygon fill="none" stroke="black" points="391.11,-919.6 391.11,-950.4 665.06,-950.4 665.06,-919.6 391.11,-919.6"/>
<text text-anchor="start" x="398.11" y="-931.8" font-family="Arial" font-size="14.00">fx_rate_used </text>
<text text-anchor="start" x="482.94" y="-931.8" font-family="Arial" font-size="14.00" fill="#666666">[numeric(18,8)]</text>
<polygon fill="none" stroke="black" points="391.11,-888.8 391.11,-919.6 665.06,-919.6 665.06,-888.8 391.11,-888.8"/>
<text text-anchor="start" x="398.11" y="-901" font-family="Arial" font-size="14.00">occurred_at </text>
<text text-anchor="start" x="475.93" y="-901" font-family="Arial" font-size="14.00" fill="#666666">[timestamp with time zone]</text>
<polygon fill="none" stroke="black" points="391.11,-858 391.11,-888.8 665.06,-888.8 665.06,-858 391.11,-858"/>
<text text-anchor="start" x="398.11" y="-870.2" font-family="Arial" font-size="14.00">note </text>
<text text-anchor="start" x="429.25" y="-870.2" font-family="Arial" font-size="14.00" fill="#666666">[text]</text>
<polygon fill="none" stroke="black" points="391.11,-827.2 391.11,-858 665.06,-858 665.06,-827.2 391.11,-827.2"/>
<text text-anchor="start" x="398.11" y="-839.4" font-family="Arial" font-size="14.00">reversed_of </text>
<text text-anchor="start" x="475.93" y="-839.4" font-family="Arial" font-size="14.00" fill="#666666">[uuid]</text>
<polygon fill="none" stroke="black" points="391.11,-796.4 391.11,-827.2 665.06,-827.2 665.06,-796.4 391.11,-796.4"/>
<text text-anchor="start" x="398.11" y="-808.6" font-family="Arial" font-size="14.00">created_at </text>
<text text-anchor="start" x="468.16" y="-808.6" font-family="Arial" font-size="14.00" fill="#666666">[timestamp with time zone]</text>
</g>
<!-- public.transactions&#45;&gt;public.items -->
<g id="edge1" class="edge">
<title>public.transactions:user_id&#45;&gt;public.items:user_id</title>
<path fill="none" stroke="black" d="M676.34,-1149.27C790.23,-1119.25 778.32,-589.2 657.08,-589.2"/>
<polygon fill="black" stroke="black" points="676.31,-1149.28 665.82,-1146.09 671.02,-1149.96 666.73,-1150.51 666.73,-1150.51 666.73,-1150.51 671.02,-1149.96 666.97,-1155.02 676.31,-1149.28"/>
<text text-anchor="start" x="673.06" y="-1160.6" font-family="Arial" font-size="10.00">FOREIGN KEY (user_id, item_id) REFERENCES items(user_id, id) ON DELETE RESTRICT</text>
</g>
</g>
</svg>
