<?xml version="1.0" encoding="UTF-8" standalone="no"?>
<!DOCTYPE svg PUBLIC "-//W3C//DTD SVG 1.1//EN"
 "http://www.w3.org/Graphics/SVG/1.1/DTD/svg11.dtd">
<!-- Generated by graphviz version 12.1.2 (20240928.0832)
 -->
<!-- Title: moneycontrol Pages: 1 -->
<svg width="1811pt" height="1954pt"
 viewBox="0.00 0.00 1810.69 1953.50" xmlns="http://www.w3.org/2000/svg" xmlns:xlink="http://www.w3.org/1999/xlink">
<g id="graph0" class="graph" transform="scale(1 1) rotate(0) translate(4 1949.5)">
<title>moneycontrol</title>
<polygon fill="white" stroke="none" points="-4,4 -4,-1949.5 1806.69,-1949.5 1806.69,4 -4,4"/>
<!-- public.schema_migrations -->
<g id="node1" class="node">
<title>public.schema_migrations</title>
<polygon fill="#efefef" stroke="none" points="43.2,-1456.6 43.2,-1492.2 371.15,-1492.2 371.15,-1456.6 43.2,-1456.6"/>
<polygon fill="none" stroke="black" points="43.2,-1456.6 43.2,-1492.2 371.15,-1492.2 371.15,-1456.6 43.2,-1456.6"/>
<text text-anchor="start" x="50.2" y="-1470" font-family="Arial Bold" font-size="18.00">public.schema_migrations</text>
<text text-anchor="start" x="239.66" y="-1470" font-family="Arial" font-size="14.00">    </text>
<text text-anchor="start" x="270.77" y="-1470" font-family="Arial" font-size="14.00" fill="#666666">[BASE TABLE]</text>
<polygon fill="none" stroke="black" points="43.2,-1425.8 43.2,-1456.6 371.15,-1456.6 371.15,-1425.8 43.2,-1425.8"/>
<text text-anchor="start" x="50.2" y="-1438" font-family="Arial" font-size="14.00">version </text>
<text text-anchor="start" x="99.22" y="-1438" font-family="Arial" font-size="14.00" fill="#666666">[bigint]</text>
<polygon fill="none" stroke="black" points="43.2,-1395 43.2,-1425.8 371.15,-1425.8 371.15,-1395 43.2,-1395"/>
<text text-anchor="start" x="50.2" y="-1407.2" font-family="Arial" font-size="14.00">dirty </text>
<text text-anchor="start" x="80.54" y="-1407.2" font-family="Arial" font-size="14.00" fill="#666666">[boolean]</text>
</g>
<!-- public.users -->
<g id="node2" class="node">
<title>public.users</title>
<polygon fill="#efefef" stroke="none" points="752.29,-228 752.29,-263.6 1002.06,-263.6 1002.06,-228 752.29,-228"/>
<polygon fill="none" stroke="black" points="752.29,-228 752.29,-263.6 1002.06,-263.6 1002.06,-228 752.29,-228"/>
<text text-anchor="start" x="771.69" y="-241.4" font-family="Arial Bold" font-size="18.00">public.users</text>
<text text-anchor="start" x="858.17" y="-241.4" font-family="Arial" font-size="14.00">    </text>
<text text-anchor="start" x="889.29" y="-241.4" font-family="Arial" font-size="14.00" fill="#666666">[BASE TABLE]</text>
<polygon fill="none" stroke="black" points="752.29,-197.2 752.29,-228 1002.06,-228 1002.06,-197.2 752.29,-197.2"/>
<text text-anchor="start" x="759.29" y="-209.4" font-family="Arial" font-size="14.00">id </text>
<text text-anchor="start" x="774.07" y="-209.4" font-family="Arial" font-size="14.00" fill="#666666">[uuid]</text>
<polygon fill="none" stroke="black" points="752.29,-166.4 752.29,-197.2 1002.06,-197.2 1002.06,-166.4 752.29,-166.4"/>
<text text-anchor="start" x="759.29" y="-178.6" font-family="Arial" font-size="14.00">email </text>
<text text-anchor="start" x="796.63" y="-178.6" font-family="Arial" font-size="14.00" fill="#666666">[citext]</text>
<polygon fill="none" stroke="black" points="752.29,-135.6 752.29,-166.4 1002.06,-166.4 1002.06,-135.6 752.29,-135.6"/>
<text text-anchor="start" x="759.29" y="-147.8" font-family="Arial" font-size="14.00">timezone </text>
<text text-anchor="start" x="819.98" y="-147.8" font-family="Arial" font-size="14.00" fill="#666666">[text]</text>
<polygon fill="none" stroke="black" points="752.29,-104.8 752.29,-135.6 1002.06,-135.6 1002.06,-104.8 752.29,-104.8"/>
<text text-anchor="start" x="759.29" y="-117" font-family="Arial" font-size="14.00">period_anchor_day </text>
<text text-anchor="start" x="883.05" y="-117" font-family="Arial" font-size="14.00" fill="#666666">[smallint]</text>
<polygon fill="none" stroke="black" points="752.29,-74 752.29,-104.8 1002.06,-104.8 1002.06,-74 752.29,-74"/>
<text text-anchor="start" x="759.29" y="-86.2" font-family="Arial" font-size="14.00">home_currency </text>
<text text-anchor="start" x="859.67" y="-86.2" font-family="Arial" font-size="14.00" fill="#666666">[character(3)]</text>
<polygon fill="none" stroke="black" points="752.29,-43.2 752.29,-74 1002.06,-74 1002.06,-43.2 752.29,-43.2"/>
<text text-anchor="start" x="759.29" y="-55.4" font-family="Arial" font-size="14.00">created_at </text>
<text text-anchor="start" x="829.34" y="-55.4" font-family="Arial" font-size="14.00" fill="#666666">[timestamp with time zone]</text>
</g>
<!-- public.oauth_identities -->
<g id="node3" class="node">
<title>public.oauth_identities</title>
<polygon fill="#efefef" stroke="none" points="199.69,-617 199.69,-652.6 502.65,-652.6 502.65,-617 199.69,-617"/>
<polygon fill="none" stroke="black" points="199.69,-617 199.69,-652.6 502.65,-652.6 502.65,-617 199.69,-617"/>
<text text-anchor="start" x="206.69" y="-630.4" font-family="Arial Bold" font-size="18.00">public.oauth_identities</text>
<text text-anchor="start" x="371.16" y="-630.4" font-family="Arial" font-size="14.00">    </text>
<text text-anchor="start" x="402.28" y="-630.4" font-family="Arial" font-size="14.00" fill="#666666">[BASE TABLE]</text>
<polygon fill="none" stroke="black" points="199.69,-586.2 199.69,-617 502.65,-617 502.65,-586.2 199.69,-586.2"/>
<text text-anchor="start" x="206.69" y="-598.4" font-family="Arial" font-size="14.00">id </text>
<text text-anchor="start" x="221.48" y="-598.4" font-family="Arial" font-size="14.00" fill="#666666">[uuid]</text>
<polygon fill="none" stroke="black" points="199.69,-555.4 199.69,-586.2 502.65,-586.2 502.65,-555.4 199.69,-555.4"/>
<text text-anchor="start" x="206.69" y="-567.6" font-family="Arial" font-size="14.00">user_id </text>
<text text-anchor="start" x="256.5" y="-567.6" font-family="Arial" font-size="14.00" fill="#666666">[uuid]</text>
<polygon fill="none" stroke="black" points="199.69,-524.6 199.69,-555.4 502.65,-555.4 502.65,-524.6 199.69,-524.6"/>
<text text-anchor="start" x="206.69" y="-536.8" font-family="Arial" font-size="14.00">provider </text>
<text text-anchor="start" x="261.16" y="-536.8" font-family="Arial" font-size="14.00" fill="#666666">[text]</text>
<polygon fill="none" stroke="black" points="199.69,-493.8 199.69,-524.6 502.65,-524.6 502.65,-493.8 199.69,-493.8"/>
<text text-anchor="start" x="206.69" y="-506" font-family="Arial" font-size="14.00">subject </text>
<text text-anchor="start" x="254.94" y="-506" font-family="Arial" font-size="14.00" fill="#666666">[text]</text>
<polygon fill="none" stroke="black" points="199.69,-463 199.69,-493.8 502.65,-493.8 502.65,-463 199.69,-463"/>
<text text-anchor="start" x="206.69" y="-475.2" font-family="Arial" font-size="14.00">created_at </text>
<text text-anchor="start" x="276.74" y="-475.2" font-family="Arial" font-size="14.00" fill="#666666">[timestamp with time zone]</text>
<polygon fill="none" stroke="black" points="199.69,-432.2 199.69,-463 502.65,-463 502.65,-432.2 199.69,-432.2"/>
<text text-anchor="start" x="206.69" y="-444.4" font-family="Arial" font-size="14.00">last_login_at </text>
<text text-anchor="start" x="289.2" y="-444.4" font-family="Arial" font-size="14.00" fill="#666666">[timestamp with time zone]</text>
</g>
<!-- public.oauth_identities&#45;&gt;public.users -->
<g id="edge1" class="edge">
<title>public.oauth_identities:user_id&#45;&gt;public.users:id</title>
<path fill="none" stroke="black" d="M513.89,-570.28C600.7,-560.86 502.64,-425.49 560.17,-342.8 618.87,-258.43 648.51,-212.6 751.29,-212.6"/>
<polygon fill="black" stroke="black" points="513.97,-570.28 503.76,-566.29 508.65,-570.55 504.32,-570.77 504.32,-570.77 504.32,-570.77 508.65,-570.55 504.21,-575.28 513.97,-570.28"/>
<text text-anchor="start" x="510.65" y="-580.8" font-family="Arial" font-size="10.00">FOREIGN KEY (user_id) REFERENCES users(id) ON DELETE CASCADE</text>
</g>
<!-- public.categories -->
<g id="node4" class="node">
<title>public.categories</title>
<polygon fill="#efefef" stroke="none" points="645.7,-617 645.7,-652.6 906.64,-652.6 906.64,-617 645.7,-617"/>
<polygon fill="none" stroke="black" points="645.7,-617 645.7,-652.6 906.64,-652.6 906.64,-617 645.7,-617"/>
<text text-anchor="start" x="652.7" y="-630.4" font-family="Arial Bold" font-size="18.00">public.categories</text>
<text text-anchor="start" x="775.15" y="-630.4" font-family="Arial" font-size="14.00">    </text>
<text text-anchor="start" x="806.27" y="-630.4" font-family="Arial" font-size="14.00" fill="#666666">[BASE TABLE]</text>
<polygon fill="none" stroke="black" points="645.7,-586.2 645.7,-617 906.64,-617 906.64,-586.2 645.7,-586.2"/>
<text text-anchor="start" x="652.7" y="-598.4" font-family="Arial" font-size="14.00">id </text>
<text text-anchor="start" x="667.49" y="-598.4" font-family="Arial" font-size="14.00" fill="#666666">[uuid]</text>
<polygon fill="none" stroke="black" points="645.7,-555.4 645.7,-586.2 906.64,-586.2 906.64,-555.4 645.7,-555.4"/>
<text text-anchor="start" x="652.7" y="-567.6" font-family="Arial" font-size="14.00">user_id </text>
<text text-anchor="start" x="702.51" y="-567.6" font-family="Arial" font-size="14.00" fill="#666666">[uuid]</text>
<polygon fill="none" stroke="black" points="645.7,-524.6 645.7,-555.4 906.64,-555.4 906.64,-524.6 645.7,-524.6"/>
<text text-anchor="start" x="652.7" y="-536.8" font-family="Arial" font-size="14.00">name </text>
<text text-anchor="start" x="691.61" y="-536.8" font-family="Arial" font-size="14.00" fill="#666666">[text]</text>
<polygon fill="none" stroke="black" points="645.7,-493.8 645.7,-524.6 906.64,-524.6 906.64,-493.8 645.7,-493.8"/>
<text text-anchor="start" x="652.7" y="-506" font-family="Arial" font-size="14.00">archived_at </text>
<text text-anchor="start" x="728.97" y="-506" font-family="Arial" font-size="14.00" fill="#666666">[timestamp with time zone]</text>
<polygon fill="none" stroke="black" points="645.7,-463 645.7,-493.8 906.64,-493.8 906.64,-463 645.7,-463"/>
<text text-anchor="start" x="652.7" y="-475.2" font-family="Arial" font-size="14.00">created_at </text>
<text text-anchor="start" x="722.75" y="-475.2" font-family="Arial" font-size="14.00" fill="#666666">[timestamp with time zone]</text>
<polygon fill="none" stroke="black" points="645.7,-432.2 645.7,-463 906.64,-463 906.64,-432.2 645.7,-432.2"/>
<text text-anchor="start" x="652.7" y="-444.4" font-family="Arial" font-size="14.00">updated_at </text>
<text text-anchor="start" x="726.66" y="-444.4" font-family="Arial" font-size="14.00" fill="#666666">[timestamp with time zone]</text>
</g>
<!-- public.categories&#45;&gt;public.users -->
<g id="edge2" class="edge">
<title>public.categories:user_id&#45;&gt;public.users:id</title>
<path fill="none" stroke="black" d="M917.81,-570.13C984.84,-560.77 946.55,-455.05 906.64,-389 866.45,-322.48 792.65,-373.22 752.29,-306.8 730.54,-271.02 709.42,-212.6 751.29,-212.6"/>
<polygon fill="black" stroke="black" points="917.95,-570.12 907.68,-566.29 912.63,-570.47 908.31,-570.76 908.31,-570.76 908.31,-570.76 912.63,-570.47 908.27,-575.27 917.95,-570.12"/>
<text text-anchor="start" x="914.64" y="-580.8" font-family="Arial" font-size="10.00">FOREIGN KEY (user_id) REFERENCES users(id) ON DELETE CASCADE</text>
</g>
<!-- public.items -->
<g id="node5" class="node">
<title>public.items</title>
<polygon fill="#efefef" stroke="none" points="683.18,-1067.6 683.18,-1103.2 939.17,-1103.2 939.17,-1067.6 683.18,-1067.6"/>
<polygon fill="none" stroke="black" points="683.18,-1067.6 683.18,-1103.2 939.17,-1103.2 939.17,-1067.6 683.18,-1067.6"/>
<text text-anchor="start" x="704.68" y="-1081" font-family="Arial Bold" font-size="18.00">public.items</text>
<text text-anchor="start" x="793.17" y="-1081" font-family="Arial" font-size="14.00">    </text>
<text text-anchor="start" x="824.29" y="-1081" font-family="Arial" font-size="14.00" fill="#666666">[BASE TABLE]</text>
<polygon fill="none" stroke="black" points="683.18,-1036.8 683.18,-1067.6 939.17,-1067.6 939.17,-1036.8 683.18,-1036.8"/>
<text text-anchor="start" x="690.18" y="-1049" font-family="Arial" font-size="14.00">id </text>
<text text-anchor="start" x="704.96" y="-1049" font-family="Arial" font-size="14.00" fill="#666666">[uuid]</text>
<polygon fill="none" stroke="black" points="683.18,-1006 683.18,-1036.8 939.17,-1036.8 939.17,-1006 683.18,-1006"/>
<text text-anchor="start" x="690.18" y="-1018.2" font-family="Arial" font-size="14.00">user_id </text>
<text text-anchor="start" x="739.98" y="-1018.2" font-family="Arial" font-size="14.00" fill="#666666">[uuid]</text>
<polygon fill="none" stroke="black" points="683.18,-975.2 683.18,-1006 939.17,-1006 939.17,-975.2 683.18,-975.2"/>
<text text-anchor="start" x="690.18" y="-987.4" font-family="Arial" font-size="14.00">category_id </text>
<text text-anchor="start" x="766.45" y="-987.4" font-family="Arial" font-size="14.00" fill="#666666">[uuid]</text>
<polygon fill="none" stroke="black" points="683.18,-944.4 683.18,-975.2 939.17,-975.2 939.17,-944.4 683.18,-944.4"/>
<text text-anchor="start" x="690.18" y="-956.6" font-family="Arial" font-size="14.00">name </text>
<text text-anchor="start" x="729.09" y="-956.6" font-family="Arial" font-size="14.00" fill="#666666">[text]</text>
<polygon fill="none" stroke="black" points="683.18,-913.6 683.18,-944.4 939.17,-944.4 939.17,-913.6 683.18,-913.6"/>
<text text-anchor="start" x="690.18" y="-925.8" font-family="Arial" font-size="14.00">importance </text>
<text text-anchor="start" x="763.32" y="-925.8" font-family="Arial" font-size="14.00" fill="#666666">[item_importance]</text>
<polygon fill="none" stroke="black" points="683.18,-882.8 683.18,-913.6 939.17,-913.6 939.17,-882.8 683.18,-882.8"/>
<text text-anchor="start" x="690.18" y="-895" font-family="Arial" font-size="14.00">archived_at </text>
<text text-anchor="start" x="766.45" y="-895" font-family="Arial" font-size="14.00" fill="#666666">[timestamp with time zone]</text>
<polygon fill="none" stroke="black" points="683.18,-852 683.18,-882.8 939.17,-882.8 939.17,-852 683.18,-852"/>
<text text-anchor="start" x="690.18" y="-864.2" font-family="Arial" font-size="14.00">created_at </text>
<text text-anchor="start" x="760.22" y="-864.2" font-family="Arial" font-size="14.00" fill="#666666">[timestamp with time zone]</text>
<polygon fill="none" stroke="black" points="683.18,-821.2 683.18,-852 939.17,-852 939.17,-821.2 683.18,-821.2"/>
<text text-anchor="start" x="690.18" y="-833.4" font-family="Arial" font-size="14.00">updated_at </text>
<text text-anchor="start" x="764.14" y="-833.4" font-family="Arial" font-size="14.00" fill="#666666">[timestamp with time zone]</text>
</g>
<!-- public.items&#45;&gt;public.users -->
<g id="edge3" class="edge">
<title>public.items:user_id&#45;&gt;public.users:id</title>
<path fill="none" stroke="black" d="M949.76,-1017.85C1013.49,-968.26 989.29,-414.63 997.17,-342.8 1003.49,-285.22 1060.98,-212.6 1003.06,-212.6"/>
<polygon fill="black" stroke="black" points="949.86,-1017.81 938.92,-1017.06 944.86,-1019.66 940.8,-1021.17 940.8,-1021.17 940.8,-1021.17 944.86,-1019.66 942.05,-1025.5 949.86,-1017.81"/>
<text text-anchor="start" x="947.17" y="-1031.4" font-family="Arial" font-size="10.00">FOREIGN KEY (user_id) REFERENCES users(id) ON DELETE CASCADE</text>
</g>
<!-- public.items&#45;&gt;public.categories -->
<g id="edge4" class="edge">
<title>public.items:category_id&#45;&gt;public.categories:id</title>
<path fill="none" stroke="black" d="M672.33,-987.56C638.27,-964.25 658.17,-813.66 683.18,-778 743.93,-691.35 845.63,-782.27 906.64,-695.8 930.78,-661.59 949.51,-601.6 907.64,-601.6"/>
<polygon fill="black" stroke="black" points="672.3,-987.56 680.53,-994.8 677.4,-989.13 681.54,-990.4 681.54,-990.4 681.54,-990.4 677.4,-989.13 683.18,-986.2 672.3,-987.56"/>
<text text-anchor="start" x="298.98" y="-1000.6" font-family="Arial" font-size="10.00">FOREIGN KEY (category_id) REFERENCES categories(id) ON DELETE RESTRICT</text>
</g>
<!-- public.items&#45;&gt;public.categories -->
<g id="edge5" class="edge">
<title>public.items:user_id&#45;&gt;public.categories:user_id</title>
<path fill="none" stroke="black" d="M672.16,-1018.72C631.41,-994.9 654.26,-819.27 683.18,-778 743.91,-691.34 845.75,-782.35 906.64,-695.8 938.61,-650.36 963.2,-570.8 907.64,-570.8"/>
<polygon fill="black" stroke="black" points="672.19,-1018.73 680.69,-1025.66 677.35,-1020.11 681.53,-1021.23 681.53,-1021.23 681.53,-1021.23 677.35,-1020.11 683.02,-1016.97 672.19,-1018.73"/>
<text text-anchor="start" x="222.27" y="-1031.4" font-family="Arial" font-size="10.00">FOREIGN KEY (user_id, category_id) REFERENCES categories(user_id, id) ON DELETE RESTRICT</text>
</g>
<!-- public.transactions -->
<g id="node6" class="node">
<title>public.transactions</title>
<polygon fill="#efefef" stroke="none" points="475.2,-1626 475.2,-1661.6 749.15,-1661.6 749.15,-1626 475.2,-1626"/>
<polygon fill="none" stroke="black" points="475.2,-1626 475.2,-1661.6 749.15,-1661.6 749.15,-1626 475.2,-1626"/>
<text text-anchor="start" x="482.2" y="-1639.4" font-family="Arial Bold" font-size="18.00">public.transactions</text>
<text text-anchor="start" x="617.66" y="-1639.4" font-family="Arial" font-size="14.00">    </text>
<text text-anchor="start" x="648.78" y="-1639.4" font-family="Arial" font-size="14.00" fill="#666666">[BASE TABLE]</text>
<polygon fill="none" stroke="black" points="475.2,-1595.2 475.2,-1626 749.15,-1626 749.15,-1595.2 475.2,-1595.2"/>
<text text-anchor="start" x="482.2" y="-1607.4" font-family="Arial" font-size="14.00">id </text>
<text text-anchor="start" x="496.98" y="-1607.4" font-family="Arial" font-size="14.00" fill="#666666">[uuid]</text>
<polygon fill="none" stroke="black" points="475.2,-1564.4 475.2,-1595.2 749.15,-1595.2 749.15,-1564.4 475.2,-1564.4"/>
<text text-anchor="start" x="482.2" y="-1576.6" font-family="Arial" font-size="14.00">user_id </text>
<text text-anchor="start" x="532" y="-1576.6" font-family="Arial" font-size="14.00" fill="#666666">[uuid]</text>
<polygon fill="none" stroke="black" points="475.2,-1533.6 475.2,-1564.4 749.15,-1564.4 749.15,-1533.6 475.2,-1533.6"/>
<text text-anchor="start" x="482.2" y="-1545.8" font-family="Arial" font-size="14.00">category_id </text>
<text text-anchor="start" x="558.46" y="-1545.8" font-family="Arial" font-size="14.00" fill="#666666">[uuid]</text>
<polygon fill="none" stroke="black" points="475.2,-1502.8 475.2,-1533.6 749.15,-1533.6 749.15,-1502.8 475.2,-1502.8"/>
<text text-anchor="start" x="482.2" y="-1515" font-family="Arial" font-size="14.00">item_id </text>
<text text-anchor="start" x="531.22" y="-1515" font-family="Arial" font-size="14.00" fill="#666666">[uuid]</text>
<polygon fill="none" stroke="black" points="475.2,-1472 475.2,-1502.8 749.15,-1502.8 749.15,-1472 475.2,-1472"/>
<text text-anchor="start" x="482.2" y="-1484.2" font-family="Arial" font-size="14.00">amount_minor </text>
<text text-anchor="start" x="575.57" y="-1484.2" font-family="Arial" font-size="14.00" fill="#666666">[bigint]</text>
<polygon fill="none" stroke="black" points="475.2,-1441.2 475.2,-1472 749.15,-1472 749.15,-1441.2 475.2,-1441.2"/>
<text text-anchor="start" x="482.2" y="-1453.4" font-family="Arial" font-size="14.00">currency </text>
<text text-anchor="start" x="539.77" y="-1453.4" font-family="Arial" font-size="14.00" fill="#666666">[character(3)]</text>
<polygon fill="none" stroke="black" points="475.2,-1410.4 475.2,-1441.2 749.15,-1441.2 749.15,-1410.4 475.2,-1410.4"/>
<text text-anchor="start" x="482.2" y="-1422.6" font-family="Arial" font-size="14.00">home_amount_minor </text>
<text text-anchor="start" x="618.38" y="-1422.6" font-family="Arial" font-size="14.00" fill="#666666">[bigint]</text>
<polygon fill="none" stroke="black" points="475.2,-1379.6 475.2,-1410.4 749.15,-1410.4 749.15,-1379.6 475.2,-1379.6"/>
<text text-anchor="start" x="482.2" y="-1391.8" font-family="Arial" font-size="14.00">home_currency </text>
<text text-anchor="start" x="582.57" y="-1391.8" font-family="Arial" font-size="14.00" fill="#666666">[character(3)]</text>
<polygon fill="none" stroke="black" points="475.2,-1348.8 475.2,-1379.6 749.15,-1379.6 749.15,-1348.8 475.2,-1348.8"/>
<text text-anchor="start" x="482.2" y="-1361" font-family="Arial" font-size="14.00">fx_rate_used </text>
<text text-anchor="start" x="567.03" y="-1361" font-family="Arial" font-size="14.00" fill="#666666">[numeric(18,8)]</text>
<polygon fill="none" stroke="black" points="475.2,-1318 475.2,-1348.8 749.15,-1348.8 749.15,-1318 475.2,-1318"/>
<text text-anchor="start" x="482.2" y="-1330.2" font-family="Arial" font-size="14.00">occurred_at </text>
<text text-anchor="start" x="560.02" y="-1330.2" font-family="Arial" font-size="14.00" fill="#666666">[timestamp with time zone]</text>
<polygon fill="none" stroke="black" points="475.2,-1287.2 475.2,-1318 749.15,-1318 749.15,-1287.2 475.2,-1287.2"/>
<text text-anchor="start" x="482.2" y="-1299.4" font-family="Arial" font-size="14.00">note </text>
<text text-anchor="start" x="513.33" y="-1299.4" font-family="Arial" font-size="14.00" fill="#666666">[text]</text>
<polygon fill="none" stroke="black" points="475.2,-1256.4 475.2,-1287.2 749.15,-1287.2 749.15,-1256.4 475.2,-1256.4"/>
<text text-anchor="start" x="482.2" y="-1268.6" font-family="Arial" font-size="14.00">reversed_of </text>
<text text-anchor="start" x="560.02" y="-1268.6" font-family="Arial" font-size="14.00" fill="#666666">[uuid]</text>
<polygon fill="none" stroke="black" points="475.2,-1225.6 475.2,-1256.4 749.15,-1256.4 749.15,-1225.6 475.2,-1225.6"/>
<text text-anchor="start" x="482.2" y="-1237.8" font-family="Arial" font-size="14.00">created_at </text>
<text text-anchor="start" x="552.24" y="-1237.8" font-family="Arial" font-size="14.00" fill="#666666">[timestamp with time zone]</text>
</g>
<!-- public.transactions&#45;&gt;public.users -->
<g id="edge6" class="edge">
<title>public.transactions:user_id&#45;&gt;public.users:id</title>
<path fill="none" stroke="black" d="M464.17,-1578.27C392.43,-1554.79 467.49,-1266.74 475.2,-1182.4 493.29,-984.29 527.95,-939.06 555.17,-742 567.37,-653.73 551.36,-421.49 593.17,-342.8 635.89,-262.41 660.26,-212.6 751.29,-212.6"/>
<polygon fill="black" stroke="black" points="463.98,-1578.25 473.19,-1584.2 469.25,-1579.05 473.53,-1579.7 473.53,-1579.7 473.53,-1579.7 469.25,-1579.05 474.54,-1575.3 463.98,-1578.25"/>
<text text-anchor="start" x="133.24" y="-1589.8" font-family="Arial" font-size="10.00">FOREIGN KEY (user_id) REFERENCES users(id) ON DELETE CASCADE</text>
</g>
<!-- public.transactions&#45;&gt;public.categories -->
<g id="edge7" class="edge">
<title>public.transactions:user_id&#45;&gt;public.categories:user_id</title>
<path fill="none" stroke="black" d="M760.22,-1579.51C923.93,-1569.86 852.37,-1321.45 749.15,-1182.4 716.47,-1138.38 663.79,-1190.46 631.17,-1146.4 582.46,-1080.6 628.5,-859.82 631.17,-778 634.18,-685.76 552.42,-570.8 644.7,-570.8"/>
<polygon fill="black" stroke="black" points="760.48,-1579.5 750.36,-1575.29 755.15,-1579.66 750.82,-1579.78 750.82,-1579.78 750.82,-1579.78 755.15,-1579.66 750.61,-1584.29 760.48,-1579.5"/>
<text text-anchor="start" x="757.15" y="-1589.8" font-family="Arial" font-size="10.00">FOREIGN KEY (user_id, category_id) REFERENCES categories(user_id, id) ON DELETE RESTRICT</text>
</g>
<!-- public.transactions&#45;&gt;public.items -->
<g id="edge8" class="edge">
<title>public.transactions:user_id&#45;&gt;public.items:user_id</title>
<path fill="none" stroke="black" d="M760.2,-1579.52C923.36,-1570.24 837.72,-1331.21 749.15,-1182.4 732.07,-1153.7 700.34,-1175.06 683.18,-1146.4 654.63,-1098.74 626.62,-1021.4 682.18,-1021.4"/>
<polygon fill="black" stroke="black" points="760.48,-1579.51 750.36,-1575.29 755.15,-1579.66 750.82,-1579.78 750.82,-1579.78 750.82,-1579.78 755.15,-1579.66 750.61,-1584.29 760.48,-1579.51"/>
<text text-anchor="start" x="757.15" y="-1563.8" font-family="Arial" font-size="10.00">FOREIGN KEY (user_id, item_id) REFERENCES items(user_id, id) ON DELETE RESTRICT</text>
</g>
<!-- public.transactions&#45;&gt;public.transactions -->
<g id="edge9" class="edge">
<title>public.transactions:reversed_of&#45;&gt;public.transactions:id</title>
<path fill="none" stroke="black" d="M613.38,-1297.45C621.15,-1485.42 620.75,-1945.5 612.17,-1945.5 603.45,-1945.5 603.18,-1787.89 611.38,-1625.79"/>
<polygon fill="black" stroke="black" points="613.38,-1297.41 617.44,-1287.22 613.15,-1292.08 612.96,-1287.75 612.96,-1287.75 612.96,-1287.75 613.15,-1292.08 608.45,-1287.61 613.38,-1297.41"/>
<text text-anchor="start" x="619.93" y="-1297.08" font-family="Arial" font-size="10.00">FOREIGN KEY (reversed_of) REFERENCES transactions(id)</text>
</g>
<!-- public.user_passwords -->
<g id="node7" class="node">
<title>public.user_passwords</title>
<polygon fill="#efefef" stroke="none" points="1049.19,-570.8 1049.19,-606.4 1351.16,-606.4 1351.16,-570.8 1049.19,-570.8"/>
<polygon fill="none" stroke="black" points="1049.19,-570.8 1049.19,-606.4 1351.16,-606.4 1351.16,-570.8 1049.19,-570.8"/>
<text text-anchor="start" x="1056.19" y="-584.2" font-family="Arial Bold" font-size="18.00">public.user_passwords</text>
<text text-anchor="start" x="1219.67" y="-584.2" font-family="Arial" font-size="14.00">    </text>
<text text-anchor="start" x="1250.78" y="-584.2" font-family="Arial" font-size="14.00" fill="#666666">[BASE TABLE]</text>
<polygon fill="none" stroke="black" points="1049.19,-540 1049.19,-570.8 1351.16,-570.8 1351.16,-540 1049.19,-540"/>
<text text-anchor="start" x="1056.19" y="-552.2" font-family="Arial" font-size="14.00">user_id </text>
<text text-anchor="start" x="1106" y="-552.2" font-family="Arial" font-size="14.00" fill="#666666">[uuid]</text>
<polygon fill="none" stroke="black" points="1049.19,-509.2 1049.19,-540 1351.16,-540 1351.16,-509.2 1049.19,-509.2"/>
<text text-anchor="start" x="1056.19" y="-521.4" font-family="Arial" font-size="14.00">password_hash </text>
<text text-anchor="start" x="1158.14" y="-521.4" font-family="Arial" font-size="14.00" fill="#666666">[text]</text>
<polygon fill="none" stroke="black" points="1049.19,-478.4 1049.19,-509.2 1351.16,-509.2 1351.16,-478.4 1049.19,-478.4"/>
<text text-anchor="start" x="1056.19" y="-490.6" font-family="Arial" font-size="14.00">updated_at </text>
<text text-anchor="start" x="1130.15" y="-490.6" font-family="Arial" font-size="14.00" fill="#666666">[timestamp with time zone]</text>
</g>
<!-- public.user_passwords&#45;&gt;public.users -->
<g id="edge10" class="edge">
<title>public.user_passwords:user_id&#45;&gt;public.users:id</title>
<path fill="none" stroke="black" d="M1038.06,-554.84C906.58,-539.52 1153.13,-212.6 1003.06,-212.6"/>
<polygon fill="black" stroke="black" points="1037.87,-554.83 1047.61,-559.87 1043.2,-555.13 1047.52,-555.36 1047.52,-555.36 1047.52,-555.36 1043.2,-555.13 1048.1,-550.89 1037.87,-554.83"/>
<text text-anchor="start" x="968.2" y="-539.4" font-family="Arial" font-size="10.00">FOREIGN KEY (user_id) REFERENCES users(id) ON DELETE CASCADE</text>
</g>
<!-- public.sessions -->
<g id="node8" class="node">
<title>public.sessions</title>
<polygon fill="#efefef" stroke="none" points="1455.73,-663.2 1455.73,-698.8 1708.61,-698.8 1708.61,-663.2 1455.73,-663.2"/>
<polygon fill="none" stroke="black" points="1455.73,-663.2 1455.73,-698.8 1708.61,-698.8 1708.61,-663.2 1455.73,-663.2"/>
<text text-anchor="start" x="1465.68" y="-676.6" font-family="Arial Bold" font-size="18.00">public.sessions</text>
<text text-anchor="start" x="1574.18" y="-676.6" font-family="Arial" font-size="14.00">    </text>
<text text-anchor="start" x="1605.3" y="-676.6" font-family="Arial" font-size="14.00" fill="#666666">[BASE TABLE]</text>
<polygon fill="none" stroke="black" points="1455.73,-632.4 1455.73,-663.2 1708.61,-663.2 1708.61,-632.4 1455.73,-632.4"/>
<text text-anchor="start" x="1462.73" y="-644.6" font-family="Arial" font-size="14.00">id </text>
<text text-anchor="start" x="1477.52" y="-644.6" font-family="Arial" font-size="14.00" fill="#666666">[uuid]</text>
<polygon fill="none" stroke="black" points="1455.73,-601.6 1455.73,-632.4 1708.61,-632.4 1708.61,-601.6 1455.73,-601.6"/>
<text text-anchor="start" x="1462.73" y="-613.8" font-family="Arial" font-size="14.00">user_id </text>
<text text-anchor="start" x="1512.54" y="-613.8" font-family="Arial" font-size="14.00" fill="#666666">[uuid]</text>
<polygon fill="none" stroke="black" points="1455.73,-570.8 1455.73,-601.6 1708.61,-601.6 1708.61,-570.8 1455.73,-570.8"/>
<text text-anchor="start" x="1462.73" y="-583" font-family="Arial" font-size="14.00">refresh_token_hash </text>
<text text-anchor="start" x="1590.37" y="-583" font-family="Arial" font-size="14.00" fill="#666666">[text]</text>
<polygon fill="none" stroke="black" points="1455.73,-540 1455.73,-570.8 1708.61,-570.8 1708.61,-540 1455.73,-540"/>
<text text-anchor="start" x="1462.73" y="-552.2" font-family="Arial" font-size="14.00">created_at </text>
<text text-anchor="start" x="1532.78" y="-552.2" font-family="Arial" font-size="14.00" fill="#666666">[timestamp with time zone]</text>
<polygon fill="none" stroke="black" points="1455.73,-509.2 1455.73,-540 1708.61,-540 1708.61,-509.2 1455.73,-509.2"/>
<text text-anchor="start" x="1462.73" y="-521.4" font-family="Arial" font-size="14.00">expires_at </text>
<text text-anchor="start" x="1531.21" y="-521.4" font-family="Arial" font-size="14.00" fill="#666666">[timestamp with time zone]</text>
<polygon fill="none" stroke="black" points="1455.73,-478.4 1455.73,-509.2 1708.61,-509.2 1708.61,-478.4 1455.73,-478.4"/>
<text text-anchor="start" x="1462.73" y="-490.6" font-family="Arial" font-size="14.00">revoked_at </text>
<text text-anchor="start" x="1535.89" y="-490.6" font-family="Arial" font-size="14.00" fill="#666666">[timestamp with time zone]</text>
<polygon fill="none" stroke="black" points="1455.73,-447.6 1455.73,-478.4 1708.61,-478.4 1708.61,-447.6 1455.73,-447.6"/>
<text text-anchor="start" x="1462.73" y="-459.8" font-family="Arial" font-size="14.00">user_agent </text>
<text text-anchor="start" x="1536.68" y="-459.8" font-family="Arial" font-size="14.00" fill="#666666">[text]</text>
<polygon fill="none" stroke="black" points="1455.73,-416.8 1455.73,-447.6 1708.61,-447.6 1708.61,-416.8 1455.73,-416.8"/>
<text text-anchor="start" x="1462.73" y="-429" font-family="Arial" font-size="14.00">ip </text>
<text text-anchor="start" x="1477.52" y="-429" font-family="Arial" font-size="14.00" fill="#666666">[inet]</text>
<polygon fill="none" stroke="black" points="1455.73,-386 1455.73,-416.8 1708.61,-416.8 1708.61,-386 1455.73,-386"/>
<text text-anchor="start" x="1462.73" y="-398.2" font-family="Arial" font-size="14.00">meta </text>
<text text-anchor="start" x="1497.75" y="-398.2" font-family="Arial" font-size="14.00" fill="#666666">[jsonb]</text>
</g>
<!-- public.sessions&#45;&gt;public.users -->
<g id="edge11" class="edge">
<title>public.sessions:user_id&#45;&gt;public.users:id</title>
<path fill="none" stroke="black" d="M1444.54,-616.54C1339.57,-606.47 1482.64,-433.21 1403.17,-342.8 1341.45,-272.57 1096.56,-212.6 1003.06,-212.6"/>
<polygon fill="black" stroke="black" points="1444.41,-616.53 1454.2,-621.48 1449.74,-616.77 1454.06,-616.97 1454.06,-616.97 1454.06,-616.97 1449.74,-616.77 1454.6,-612.49 1444.41,-616.53"/>
<text text-anchor="start" x="1461.73" y="-627" font-family="Arial" font-size="10.00">FOREIGN KEY (user_id) REFERENCES users(id) ON DELETE CASCADE</text>
</g>
</g>
</svg>
